<svg width="124" height="24" viewBox="0 0 124 24" fill="none" xmlns="http://www.w3.org/2000/svg">
<path d="M22.75 19.8203V4.25078H29.3005C30.368 4.25078 31.283 4.4319 32.0455 4.79415C32.808 5.15639 33.3903 5.67886 33.7923 6.36155C34.1944 7.0303 34.3954 7.84535 34.3954 8.80669C34.3954 9.48938 34.2082 10.1442 33.8339 10.7712C33.4596 11.3842 32.8427 11.8997 31.9831 12.3177V10.7294C32.8011 11.0498 33.4319 11.433 33.8755 11.8788C34.3191 12.3246 34.6241 12.8123 34.7905 13.3417C34.9569 13.8572 35.04 14.4006 35.04 14.9718C35.04 16.5044 34.534 17.6956 33.522 18.5455C32.5099 19.3953 31.1028 19.8203 29.3005 19.8203H22.75ZM25.9733 16.999H29.6748C30.3264 16.999 30.8463 16.8109 31.2345 16.4347C31.6227 16.0585 31.8168 15.5709 31.8168 14.9718C31.8168 14.3588 31.6227 13.8642 31.2345 13.488C30.8463 13.1118 30.3264 12.9237 29.6748 12.9237H25.9733V16.999ZM25.9733 10.1024H29.5293C30.0284 10.1024 30.4235 9.96308 30.7146 9.68443C31.0196 9.39185 31.1721 9.00871 31.1721 8.53501C31.1721 8.0613 31.0196 7.68513 30.7146 7.40648C30.4235 7.1139 30.0284 6.96761 29.5293 6.96761H25.9733V10.1024Z" fill="white"/>
<path d="M40.3934 20.0711C39.5754 20.0711 38.8684 19.9387 38.2722 19.674C37.6761 19.4093 37.2186 19.0331 36.8998 18.5455C36.5809 18.0439 36.4215 17.4518 36.4215 16.7691C36.4215 16.1282 36.567 15.5639 36.8582 15.0763C37.1493 14.5747 37.5929 14.1567 38.1891 13.8224C38.7991 13.488 39.5546 13.2511 40.4558 13.1118L43.9286 12.5475V14.8464L41.0172 15.3689C40.5736 15.4525 40.2339 15.5987 39.9983 15.8077C39.7626 16.0028 39.6447 16.2884 39.6447 16.6646C39.6447 17.0129 39.7764 17.2846 40.0398 17.4796C40.3033 17.6747 40.6291 17.7722 41.0172 17.7722C41.5302 17.7722 41.9807 17.6607 42.3689 17.4378C42.7571 17.2149 43.0552 16.9154 43.2631 16.5392C43.4849 16.1491 43.5959 15.7241 43.5959 15.2644V12.2968C43.5959 11.8649 43.4226 11.5026 43.076 11.21C42.7432 10.9175 42.2857 10.7712 41.7035 10.7712C41.1489 10.7712 40.6568 10.9244 40.227 11.2309C39.8111 11.5374 39.5061 11.9415 39.312 12.4431L36.8166 11.2518C37.0384 10.6109 37.3919 10.0606 37.8771 9.60084C38.3624 9.14107 38.9446 8.78579 39.6239 8.53501C40.3033 8.28422 41.045 8.15883 41.849 8.15883C42.8056 8.15883 43.6513 8.33299 44.3861 8.6813C45.1208 9.02961 45.6892 9.51724 46.0913 10.1442C46.5072 10.7572 46.7151 11.4747 46.7151 12.2968V19.8203H43.8038V17.9812L44.5108 17.8558C44.1781 18.3574 43.8107 18.7753 43.4087 19.1097C43.0067 19.4302 42.5561 19.667 42.057 19.8203C41.5579 19.9875 41.0034 20.0711 40.3934 20.0711Z" fill="white"/>
<path d="M54.5759 20.0711C53.4391 20.0711 52.4132 19.8133 51.4982 19.2978C50.5971 18.7684 49.8762 18.0509 49.3355 17.1452C48.8087 16.2396 48.5453 15.2226 48.5453 14.094C48.5453 12.9655 48.8087 11.9554 49.3355 11.0637C49.8623 10.1581 50.5832 9.44758 51.4982 8.93208C52.4132 8.41658 53.4391 8.15883 54.5759 8.15883C55.4216 8.15883 56.2049 8.30512 56.9258 8.5977C57.6467 8.89028 58.2636 9.30129 58.7766 9.83072C59.2896 10.3462 59.6569 10.9592 59.8788 11.6698L57.1754 12.8401C56.9813 12.2689 56.6485 11.8161 56.1772 11.4817C55.7197 11.1473 55.1859 10.9801 54.5759 10.9801C54.0353 10.9801 53.55 11.1125 53.1203 11.3772C52.7044 11.6419 52.3716 12.0111 52.1221 12.4848C51.8864 12.9586 51.7686 13.5019 51.7686 14.1149C51.7686 14.728 51.8864 15.2713 52.1221 15.745C52.3716 16.2187 52.7044 16.5879 53.1203 16.8527C53.55 17.1174 54.0353 17.2497 54.5759 17.2497C55.1998 17.2497 55.7405 17.0825 56.198 16.7482C56.6555 16.4138 56.9813 15.961 57.1754 15.3898L59.8788 16.581C59.6708 17.2497 59.3103 17.8488 58.7974 18.3783C58.2844 18.9077 57.6675 19.3257 56.9466 19.6322C56.2257 19.9248 55.4355 20.0711 54.5759 20.0711Z" fill="white"/>
<path d="M61.7156 19.8203V4H64.8349V14.1358L63.6703 13.7597L68.682 8.40961H72.5291L68.4117 13.0073L72.5083 19.8203H68.9731L65.5419 14.0313L67.3511 13.5716L63.8783 17.3751L64.8349 15.5569V19.8203H61.7156Z" fill="white"/>
<path d="M73.9003 24V8.40961H76.8117V10.5831L76.5413 9.95611C76.9156 9.38488 77.4217 8.94601 78.0594 8.6395C78.711 8.31905 79.4527 8.15883 80.2845 8.15883C81.3658 8.15883 82.3432 8.42355 83.2166 8.95298C84.09 9.48241 84.7832 10.1999 85.2962 11.1055C85.8091 11.9972 86.0656 13.0003 86.0656 14.1149C86.0656 15.2156 85.8091 16.2187 85.2962 17.1243C84.7971 18.03 84.1108 18.7475 83.2374 19.2769C82.364 19.8063 81.3728 20.0711 80.2637 20.0711C79.4873 20.0711 78.7664 19.9317 78.101 19.6531C77.4494 19.3605 76.9226 18.9356 76.5205 18.3783L77.0196 17.7304V24H73.9003ZM79.8894 17.2497C80.4716 17.2497 80.9846 17.1174 81.4282 16.8527C81.8719 16.5879 82.2185 16.2187 82.468 15.745C82.7175 15.2713 82.8423 14.728 82.8423 14.1149C82.8423 13.5019 82.7175 12.9655 82.468 12.5057C82.2185 12.032 81.8719 11.6628 81.4282 11.3981C80.9846 11.1195 80.4716 10.9801 79.8894 10.9801C79.3348 10.9801 78.8357 11.1125 78.3921 11.3772C77.9623 11.6419 77.6227 12.0111 77.3731 12.4848C77.1375 12.9586 77.0196 13.5019 77.0196 14.1149C77.0196 14.728 77.1375 15.2713 77.3731 15.745C77.6227 16.2187 77.9623 16.5879 78.3921 16.8527C78.8357 17.1174 79.3348 17.2497 79.8894 17.2497Z" fill="white"/>
<path d="M91.4069 20.0711C90.589 20.0711 89.8819 19.9387 89.2858 19.674C88.6896 19.4093 88.2321 19.0331 87.9133 18.5455C87.5944 18.0439 87.435 17.4518 87.435 16.7691C87.435 16.1282 87.5806 15.5639 87.8717 15.0763C88.1628 14.5747 88.6065 14.1567 89.2026 13.8224C89.8126 13.488 90.5682 13.2511 91.4693 13.1118L94.9421 12.5475V14.8464L92.0308 15.3689C91.5871 15.4525 91.2475 15.5987 91.0118 15.8077C90.7761 16.0028 90.6583 16.2884 90.6583 16.6646C90.6583 17.0129 90.79 17.2846 91.0534 17.4796C91.3168 17.6747 91.6426 17.7722 92.0308 17.7722C92.5437 17.7722 92.9943 17.6607 93.3825 17.4378C93.7706 17.2149 94.0687 16.9154 94.2767 16.5392C94.4985 16.1491 94.6094 15.7241 94.6094 15.2644V12.2968C94.6094 11.8649 94.4361 11.5026 94.0895 11.21C93.7568 10.9175 93.2993 10.7712 92.717 10.7712C92.1625 10.7712 91.6703 10.9244 91.2405 11.2309C90.8246 11.5374 90.5196 11.9415 90.3255 12.4431L87.8301 11.2518C88.0519 10.6109 88.4054 10.0606 88.8907 9.60084C89.3759 9.14107 89.9582 8.78579 90.6375 8.53501C91.3168 8.28422 92.0585 8.15883 92.8626 8.15883C93.8192 8.15883 94.6648 8.33299 95.3996 8.6813C96.1344 9.02961 96.7028 9.51724 97.1048 10.1442C97.5207 10.7572 97.7287 11.4747 97.7287 12.2968V19.8203H94.8173V17.9812L95.5244 17.8558C95.1917 18.3574 94.8243 18.7753 94.4222 19.1097C94.0202 19.4302 93.5696 19.667 93.0705 19.8203C92.5714 19.9875 92.0169 20.0711 91.4069 20.0711Z" fill="white"/>
<path d="M105.589 20.0711C104.453 20.0711 103.427 19.8133 102.512 19.2978C101.611 18.7684 100.89 18.0509 100.349 17.1452C99.8222 16.2396 99.5588 15.2226 99.5588 14.094C99.5588 12.9655 99.8222 11.9554 100.349 11.0637C100.876 10.1581 101.597 9.44758 102.512 8.93208C103.427 8.41658 104.453 8.15883 105.589 8.15883C106.435 8.15883 107.218 8.30512 107.939 8.5977C108.66 8.89028 109.277 9.30129 109.79 9.83072C110.303 10.3462 110.67 10.9592 110.892 11.6698L108.189 12.8401C107.995 12.2689 107.662 11.8161 107.191 11.4817C106.733 11.1473 106.199 10.9801 105.589 10.9801C105.049 10.9801 104.564 11.1125 104.134 11.3772C103.718 11.6419 103.385 12.0111 103.136 12.4848C102.9 12.9586 102.782 13.5019 102.782 14.1149C102.782 14.728 102.9 15.2713 103.136 15.745C103.385 16.2187 103.718 16.5879 104.134 16.8527C104.564 17.1174 105.049 17.2497 105.589 17.2497C106.213 17.2497 106.754 17.0825 107.212 16.7482C107.669 16.4138 107.995 15.961 108.189 15.3898L110.892 16.581C110.684 17.2497 110.324 17.8488 109.811 18.3783C109.298 18.9077 108.681 19.3257 107.96 19.6322C107.239 19.9248 106.449 20.0711 105.589 20.0711Z" fill="white"/>
<path d="M112.729 19.8203V4H115.848V14.1358L114.684 13.7597L119.696 8.40961H123.543L119.425 13.0073L123.522 19.8203H119.987L116.555 14.0313L118.365 13.5716L114.892 17.3751L115.848 15.5569V19.8203H112.729Z" fill="white"/>
<g clip-path="url(#clip0_1_787)">
<path fill-rule="evenodd" clip-rule="evenodd" d="M8.58639 1.65119C9.34967 1.65119 10.0656 1.75351 10.7285 1.94328C10.0795 0.430722 8.73202 0 7.23237 0C5.72978 0 4.37994 0.432415 3.73242 1.95219C4.39044 1.75575 5.10331 1.65119 5.86399 1.65119H8.58639ZM5.6894 3.16974C2.06503 3.16974 0 6.021 0 9.53821V13.1512C0 13.503 0.293813 13.7812 0.65625 13.7812H13.7812C14.1437 13.7812 14.4375 13.503 14.4375 13.1512V9.53821C14.4375 6.021 12.0362 3.16974 8.4118 3.16974H5.6894ZM7.21362 9.56946C8.48215 9.56946 9.5105 8.54111 9.5105 7.27258C9.5105 6.00405 8.48215 4.97571 7.21362 4.97571C5.94509 4.97571 4.91675 6.00405 4.91675 7.27258C4.91675 8.54111 5.94509 9.56946 7.21362 9.56946ZM0 15.9049C0 15.5532 0.293813 15.2681 0.65625 15.2681H13.7812C14.1437 15.2681 14.4375 15.5532 14.4375 15.9049V19.726C14.4375 20.4294 13.8499 20.9997 13.125 20.9997H1.3125C0.587626 20.9997 0 20.4294 0 19.726V15.9049Z" fill="#E33E3F"/>
</g>
<defs>
<clipPath id="clip0_1_787">
<rect width="14.4375" height="21" fill="white"/>
</clipPath>
</defs>
</svg>
