<svg width="132" height="28" viewBox="0 0 132 28" fill="none" xmlns="http://www.w3.org/2000/svg">
<path d="M0 10.5907C0 10.5907 0 0 9.81681 0C20.3109 0 20.3109 10.5907 20.3109 10.5907V28H0V10.5907Z" fill="url(#paint0_linear_4739_32431)"/>
<path fill-rule="evenodd" clip-rule="evenodd" d="M8.41764 10.3004H4.35547V23.6476H8.41764V10.3004ZM15.9613 13.202C15.9613 14.8045 14.6622 16.1035 13.0598 16.1035C11.4573 16.1035 10.1582 14.8045 10.1582 13.202C10.1582 11.5995 11.4573 10.3004 13.0598 10.3004C14.6622 10.3004 15.9613 11.5995 15.9613 13.202ZM15.9613 20.7459C15.9613 22.3484 14.6622 23.6475 13.0598 23.6475C11.4573 23.6475 10.1582 22.3484 10.1582 20.7459C10.1582 19.1434 11.4573 17.8444 13.0598 17.8444C14.6622 17.8444 15.9613 19.1434 15.9613 20.7459Z" fill="white"/>
<path d="M39.9665 23C43.2005 23 45.3345 21.306 45.3345 18.446C45.3345 16.378 44.1465 15.146 42.6945 14.596C43.6405 14.112 44.5645 13.012 44.5645 11.56C44.5645 9.008 42.5625 7.6 39.7465 7.6H33.7845V23H39.9665ZM36.6445 9.932H39.5045C41.0885 9.932 41.8585 10.592 41.8585 11.78C41.8585 12.968 41.0885 13.628 39.5485 13.628H36.6445V9.932ZM36.6445 16.092H39.6585C41.6165 16.092 42.5405 16.884 42.5405 18.292C42.5405 19.722 41.6165 20.47 39.6585 20.47H36.6445V16.092ZM51.8235 11.736C48.9415 11.736 47.0715 13.452 46.9395 15.652H49.3595C49.4035 14.662 50.2615 13.76 51.6915 13.76C53.1215 13.76 53.9575 14.53 53.9575 15.608C53.9575 16.048 53.6935 16.356 53.1435 16.356H51.0975C48.6115 16.356 46.9395 17.698 46.9395 19.854C46.9395 21.768 48.4355 23.176 50.6355 23.176C52.2195 23.176 53.4955 22.45 53.9575 21.35V23H56.6195V15.872C56.6195 13.364 54.6395 11.736 51.8235 11.736ZM51.2735 21.174C50.2615 21.174 49.5575 20.602 49.5575 19.744C49.5575 18.776 50.3275 18.138 51.4715 18.138H53.9575V18.314C53.9575 19.986 52.9675 21.174 51.2735 21.174ZM63.9101 23.176C66.7701 23.176 68.9261 21.438 69.2781 19.018H66.5501C66.2861 20.118 65.2961 20.844 64.0201 20.844C62.1281 20.844 61.0941 19.392 61.0941 17.456C61.0941 15.52 62.1061 14.068 63.9761 14.068C65.2521 14.068 66.3301 14.86 66.5281 15.96H69.2121C68.9701 13.408 66.7041 11.736 63.9101 11.736C60.4561 11.736 58.2781 14.288 58.2781 17.456C58.2781 20.624 60.4561 23.176 63.9101 23.176ZM81.9228 23L77.0388 16.268L81.5488 11.912H78.1168L73.8708 15.96V7.16H71.1648V23H73.8708V19.326L75.1908 18.05L78.6448 23H81.9228ZM86.1164 27.488V21.79C86.7324 22.648 87.9204 23.176 89.2624 23.176C92.5184 23.176 94.6084 20.844 94.6084 17.456C94.6084 14.068 92.6504 11.736 89.4604 11.736C87.9864 11.736 86.7764 12.352 86.1164 13.298V11.912H83.4324V27.488H86.1164ZM88.9544 20.844C87.1284 20.844 85.9404 19.502 85.9404 17.456C85.9404 15.41 87.1284 14.068 88.9544 14.068C90.7364 14.068 91.9244 15.41 91.9244 17.456C91.9244 19.502 90.7364 20.844 88.9544 20.844ZM100.872 11.736C97.9903 11.736 96.1203 13.452 95.9883 15.652H98.4083C98.4523 14.662 99.3103 13.76 100.74 13.76C102.17 13.76 103.006 14.53 103.006 15.608C103.006 16.048 102.742 16.356 102.192 16.356H100.146C97.6603 16.356 95.9883 17.698 95.9883 19.854C95.9883 21.768 97.4843 23.176 99.6843 23.176C101.268 23.176 102.544 22.45 103.006 21.35V23H105.668V15.872C105.668 13.364 103.688 11.736 100.872 11.736ZM100.322 21.174C99.3103 21.174 98.6063 20.602 98.6063 19.744C98.6063 18.776 99.3763 18.138 100.52 18.138H103.006V18.314C103.006 19.986 102.016 21.174 100.322 21.174ZM112.959 23.176C115.819 23.176 117.975 21.438 118.327 19.018H115.599C115.335 20.118 114.345 20.844 113.069 20.844C111.177 20.844 110.143 19.392 110.143 17.456C110.143 15.52 111.155 14.068 113.025 14.068C114.301 14.068 115.379 14.86 115.577 15.96H118.261C118.019 13.408 115.753 11.736 112.959 11.736C109.505 11.736 107.327 14.288 107.327 17.456C107.327 20.624 109.505 23.176 112.959 23.176ZM130.972 23L126.088 16.268L130.598 11.912H127.166L122.92 15.96V7.16H120.214V23H122.92V19.326L124.24 18.05L127.694 23H130.972Z" fill="white"/>
<defs>
<linearGradient id="paint0_linear_4739_32431" x1="20.3109" y1="0" x2="2.79233" y2="29.6498" gradientUnits="userSpaceOnUse">
<stop stop-color="#A773F6"/>
<stop offset="1" stop-color="#14B8A6"/>
</linearGradient>
</defs>
</svg>
