<svg width="194" height="39" viewBox="0 0 194 39" fill="none" xmlns="http://www.w3.org/2000/svg">
<path d="M0 30.28V0.479998H12.6C14.6533 0.479998 16.4133 0.826665 17.88 1.52C19.3467 2.21333 20.4667 3.21333 21.24 4.52C22.0133 5.8 22.4 7.36 22.4 9.2C22.4 10.5067 22.04 11.76 21.32 12.96C20.6 14.1333 19.4133 15.12 17.76 15.92V12.88C19.3333 13.4933 20.5467 14.2267 21.4 15.08C22.2533 15.9333 22.84 16.8667 23.16 17.88C23.48 18.8667 23.64 19.9067 23.64 21C23.64 23.9333 22.6667 26.2133 20.72 27.84C18.7733 29.4667 16.0667 30.28 12.6 30.28H0ZM6.2 24.88H13.32C14.5733 24.88 15.5733 24.52 16.32 23.8C17.0667 23.08 17.44 22.1467 17.44 21C17.44 19.8267 17.0667 18.88 16.32 18.16C15.5733 17.44 14.5733 17.08 13.32 17.08H6.2V24.88ZM6.2 11.68H13.04C14 11.68 14.76 11.4133 15.32 10.88C15.9067 10.32 16.2 9.58667 16.2 8.68C16.2 7.77333 15.9067 7.05333 15.32 6.52C14.76 5.96 14 5.68 13.04 5.68H6.2V11.68Z" fill="white"/>
<path d="M33.9372 30.76C32.3639 30.76 31.0039 30.5067 29.8572 30C28.7105 29.4933 27.8305 28.7733 27.2172 27.84C26.6039 26.88 26.2972 25.7467 26.2972 24.44C26.2972 23.2133 26.5772 22.1333 27.1372 21.2C27.6972 20.24 28.5505 19.44 29.6972 18.8C30.8705 18.16 32.3239 17.7067 34.0572 17.44L40.7372 16.36V20.76L35.1372 21.76C34.2839 21.92 33.6305 22.2 33.1772 22.6C32.7239 22.9733 32.4972 23.52 32.4972 24.24C32.4972 24.9067 32.7505 25.4267 33.2572 25.8C33.7639 26.1733 34.3905 26.36 35.1372 26.36C36.1239 26.36 36.9905 26.1467 37.7372 25.72C38.4839 25.2933 39.0572 24.72 39.4572 24C39.8839 23.2533 40.0972 22.44 40.0972 21.56V15.88C40.0972 15.0533 39.7639 14.36 39.0972 13.8C38.4572 13.24 37.5772 12.96 36.4572 12.96C35.3905 12.96 34.4439 13.2533 33.6172 13.84C32.8172 14.4267 32.2305 15.2 31.8572 16.16L27.0572 13.88C27.4839 12.6533 28.1639 11.6 29.0972 10.72C30.0305 9.84 31.1505 9.16 32.4572 8.68C33.7639 8.2 35.1905 7.96 36.7372 7.96C38.5772 7.96 40.2039 8.29333 41.6172 8.96C43.0305 9.62667 44.1239 10.56 44.8972 11.76C45.6972 12.9333 46.0972 14.3067 46.0972 15.88V30.28H40.4972V26.76L41.8572 26.52C41.2172 27.48 40.5105 28.28 39.7372 28.92C38.9639 29.5333 38.0972 29.9867 37.1372 30.28C36.1772 30.6 35.1105 30.76 33.9372 30.76Z" fill="white"/>
<path d="M61.2175 30.76C59.0308 30.76 57.0575 30.2667 55.2975 29.28C53.5642 28.2667 52.1775 26.8933 51.1375 25.16C50.1242 23.4267 49.6175 21.48 49.6175 19.32C49.6175 17.16 50.1242 15.2267 51.1375 13.52C52.1508 11.7867 53.5375 10.4267 55.2975 9.44C57.0575 8.45333 59.0308 7.96 61.2175 7.96C62.8442 7.96 64.3508 8.24 65.7375 8.8C67.1242 9.36 68.3108 10.1467 69.2975 11.16C70.2842 12.1467 70.9908 13.32 71.4175 14.68L66.2175 16.92C65.8442 15.8267 65.2042 14.96 64.2975 14.32C63.4175 13.68 62.3908 13.36 61.2175 13.36C60.1775 13.36 59.2442 13.6133 58.4175 14.12C57.6175 14.6267 56.9775 15.3333 56.4975 16.24C56.0442 17.1467 55.8175 18.1867 55.8175 19.36C55.8175 20.5333 56.0442 21.5733 56.4975 22.48C56.9775 23.3867 57.6175 24.0933 58.4175 24.6C59.2442 25.1067 60.1775 25.36 61.2175 25.36C62.4175 25.36 63.4575 25.04 64.3375 24.4C65.2175 23.76 65.8442 22.8933 66.2175 21.8L71.4175 24.08C71.0175 25.36 70.3242 26.5067 69.3375 27.52C68.3508 28.5333 67.1642 29.3333 65.7775 29.92C64.3908 30.48 62.8708 30.76 61.2175 30.76Z" fill="white"/>
<path d="M74.9506 30.28V0H80.9506V19.4L78.7106 18.68L88.3506 8.44H95.7506L87.8306 17.24L95.7106 30.28H88.9106L82.3106 19.2L85.7906 18.32L79.1106 25.6L80.9506 22.12V30.28H74.9506Z" fill="white"/>
<path d="M98.3881 38.28V8.44H103.988V12.6L103.468 11.4C104.188 10.3067 105.161 9.46667 106.388 8.88C107.641 8.26667 109.068 7.96 110.668 7.96C112.748 7.96 114.628 8.46667 116.308 9.48C117.988 10.4933 119.321 11.8667 120.308 13.6C121.295 15.3067 121.788 17.2267 121.788 19.36C121.788 21.4667 121.295 23.3867 120.308 25.12C119.348 26.8533 118.028 28.2267 116.348 29.24C114.668 30.2533 112.761 30.76 110.628 30.76C109.135 30.76 107.748 30.4933 106.468 29.96C105.215 29.4 104.201 28.5867 103.428 27.52L104.388 26.28V38.28H98.3881ZM109.908 25.36C111.028 25.36 112.015 25.1067 112.868 24.6C113.721 24.0933 114.388 23.3867 114.868 22.48C115.348 21.5733 115.588 20.5333 115.588 19.36C115.588 18.1867 115.348 17.16 114.868 16.28C114.388 15.3733 113.721 14.6667 112.868 14.16C112.015 13.6267 111.028 13.36 109.908 13.36C108.841 13.36 107.881 13.6133 107.028 14.12C106.201 14.6267 105.548 15.3333 105.068 16.24C104.615 17.1467 104.388 18.1867 104.388 19.36C104.388 20.5333 104.615 21.5733 105.068 22.48C105.548 23.3867 106.201 24.0933 107.028 24.6C107.881 25.1067 108.841 25.36 109.908 25.36Z" fill="white"/>
<path d="M132.062 30.76C130.489 30.76 129.129 30.5067 127.982 30C126.836 29.4933 125.956 28.7733 125.342 27.84C124.729 26.88 124.422 25.7467 124.422 24.44C124.422 23.2133 124.702 22.1333 125.262 21.2C125.822 20.24 126.676 19.44 127.822 18.8C128.996 18.16 130.449 17.7067 132.182 17.44L138.862 16.36V20.76L133.262 21.76C132.409 21.92 131.756 22.2 131.302 22.6C130.849 22.9733 130.622 23.52 130.622 24.24C130.622 24.9067 130.876 25.4267 131.382 25.8C131.889 26.1733 132.516 26.36 133.262 26.36C134.249 26.36 135.116 26.1467 135.862 25.72C136.609 25.2933 137.182 24.72 137.582 24C138.009 23.2533 138.222 22.44 138.222 21.56V15.88C138.222 15.0533 137.889 14.36 137.222 13.8C136.582 13.24 135.702 12.96 134.582 12.96C133.516 12.96 132.569 13.2533 131.742 13.84C130.942 14.4267 130.356 15.2 129.982 16.16L125.182 13.88C125.609 12.6533 126.289 11.6 127.222 10.72C128.156 9.84 129.276 9.16 130.582 8.68C131.889 8.2 133.316 7.96 134.862 7.96C136.702 7.96 138.329 8.29333 139.742 8.96C141.156 9.62667 142.249 10.56 143.022 11.76C143.822 12.9333 144.222 14.3067 144.222 15.88V30.28H138.622V26.76L139.982 26.52C139.342 27.48 138.636 28.28 137.862 28.92C137.089 29.5333 136.222 29.9867 135.262 30.28C134.302 30.6 133.236 30.76 132.062 30.76Z" fill="white"/>
<path d="M159.342 30.76C157.156 30.76 155.182 30.2667 153.423 29.28C151.689 28.2667 150.302 26.8933 149.262 25.16C148.249 23.4267 147.743 21.48 147.743 19.32C147.743 17.16 148.249 15.2267 149.262 13.52C150.276 11.7867 151.663 10.4267 153.423 9.44C155.182 8.45333 157.156 7.96 159.342 7.96C160.969 7.96 162.476 8.24 163.863 8.8C165.249 9.36 166.436 10.1467 167.423 11.16C168.409 12.1467 169.116 13.32 169.542 14.68L164.342 16.92C163.969 15.8267 163.329 14.96 162.423 14.32C161.542 13.68 160.516 13.36 159.342 13.36C158.303 13.36 157.369 13.6133 156.542 14.12C155.742 14.6267 155.102 15.3333 154.622 16.24C154.169 17.1467 153.943 18.1867 153.943 19.36C153.943 20.5333 154.169 21.5733 154.622 22.48C155.102 23.3867 155.742 24.0933 156.542 24.6C157.369 25.1067 158.303 25.36 159.342 25.36C160.542 25.36 161.583 25.04 162.463 24.4C163.343 23.76 163.969 22.8933 164.342 21.8L169.542 24.08C169.143 25.36 168.449 26.5067 167.463 27.52C166.476 28.5333 165.289 29.3333 163.902 29.92C162.516 30.48 160.996 30.76 159.342 30.76Z" fill="white"/>
<path d="M173.076 30.28V0H179.076V19.4L176.836 18.68L186.476 8.44H193.876L185.956 17.24L193.836 30.28H187.036L180.436 19.2L183.916 18.32L177.236 25.6L179.076 22.12V30.28H173.076Z" fill="white"/>
</svg>
