<svg width="324" height="85" viewBox="0 0 324 85" fill="none" xmlns="http://www.w3.org/2000/svg">
<path d="M19.1996 68H7.66548L25.2401 17.0909H39.1108L56.6605 68H45.1264L32.3743 28.7244H31.9766L19.1996 68ZM18.4787 47.9893H45.723V56.3913H18.4787V47.9893ZM73.1786 45.9261V68H62.5891V29.8182H72.6815V36.5547H73.1289C73.9741 34.334 75.391 32.5774 77.3796 31.2848C79.3683 29.9756 81.7795 29.321 84.6133 29.321C87.2648 29.321 89.5766 29.901 91.5487 31.0611C93.5207 32.2211 95.0536 33.8783 96.1474 36.0327C97.2411 38.1705 97.788 40.7225 97.788 43.6889V68H87.1985V45.5781C87.2151 43.2415 86.6185 41.4186 85.4087 40.1094C84.199 38.7836 82.5335 38.1207 80.4123 38.1207C78.9871 38.1207 77.7276 38.4273 76.6339 39.0405C75.5567 39.6536 74.7115 40.5485 74.0984 41.7251C73.5018 42.8852 73.1952 44.2855 73.1786 45.9261ZM117.022 68.7209C114.586 68.7209 112.415 68.2983 110.509 67.4531C108.603 66.5914 107.095 65.3236 105.985 63.6499C104.891 61.9595 104.344 59.8549 104.344 57.3359C104.344 55.2147 104.734 53.4332 105.513 51.9915C106.291 50.5497 107.352 49.3897 108.694 48.5114C110.037 47.633 111.561 46.9702 113.268 46.5227C114.992 46.0753 116.798 45.7604 118.687 45.5781C120.908 45.3461 122.698 45.1307 124.057 44.9318C125.416 44.7164 126.402 44.4015 127.015 43.9872C127.628 43.5729 127.934 42.9598 127.934 42.1477V41.9986C127.934 40.4242 127.437 39.2062 126.443 38.3445C125.465 37.4827 124.073 37.0518 122.267 37.0518C120.361 37.0518 118.845 37.4744 117.718 38.3196C116.591 39.1482 115.845 40.1922 115.481 41.4517L105.687 40.6562C106.184 38.3362 107.162 36.331 108.62 34.6406C110.078 32.9337 111.959 31.6245 114.263 30.7131C116.583 29.785 119.267 29.321 122.317 29.321C124.438 29.321 126.468 29.5696 128.407 30.0668C130.362 30.5639 132.094 31.3345 133.602 32.3785C135.127 33.4226 136.328 34.7649 137.206 36.4055C138.085 38.0296 138.524 39.9768 138.524 42.2472V68H128.481V62.7053H128.183C127.57 63.8984 126.75 64.9508 125.722 65.8622C124.695 66.7571 123.46 67.4614 122.018 67.9751C120.577 68.4723 118.911 68.7209 117.022 68.7209ZM120.055 61.4126C121.612 61.4126 122.988 61.1061 124.181 60.4929C125.374 59.8632 126.31 59.018 126.99 57.9574C127.669 56.8968 128.009 55.6953 128.009 54.353V50.3011C127.678 50.5166 127.222 50.7154 126.642 50.8977C126.078 51.0634 125.44 51.2209 124.728 51.37C124.015 51.5026 123.303 51.6269 122.59 51.7429C121.877 51.8423 121.231 51.9335 120.651 52.0163C119.408 52.1986 118.323 52.4886 117.395 52.8864C116.467 53.2841 115.746 53.8227 115.232 54.5021C114.718 55.165 114.461 55.9936 114.461 56.9879C114.461 58.4297 114.983 59.5317 116.028 60.294C117.088 61.0398 118.43 61.4126 120.055 61.4126ZM163.941 83.1136C160.511 83.1136 157.569 82.6413 155.117 81.6967C152.681 80.7687 150.742 79.5009 149.3 77.8935C147.858 76.286 146.922 74.4796 146.491 72.4744L156.285 71.157C156.583 71.9193 157.056 72.6319 157.702 73.2947C158.348 73.9576 159.202 74.4879 160.262 74.8857C161.339 75.3 162.649 75.5071 164.19 75.5071C166.493 75.5071 168.391 74.9437 169.882 73.8168C171.39 72.7064 172.144 70.8421 172.144 68.2237V61.2386H171.697C171.233 62.2992 170.537 63.3018 169.609 64.2464C168.681 65.1911 167.488 65.9616 166.029 66.5582C164.571 67.1548 162.831 67.4531 160.809 67.4531C157.942 67.4531 155.332 66.7902 152.979 65.4645C150.642 64.1222 148.778 62.0755 147.386 59.3246C146.01 56.5571 145.323 53.0604 145.323 48.8345C145.323 44.5092 146.027 40.8965 147.436 37.9964C148.844 35.0964 150.717 32.9254 153.053 31.4837C155.407 30.0419 157.984 29.321 160.784 29.321C162.922 29.321 164.712 29.6856 166.154 30.4148C167.595 31.1274 168.755 32.0223 169.634 33.0994C170.529 34.16 171.216 35.2041 171.697 36.2315H172.095V29.8182H182.61V68.3729C182.61 71.621 181.814 74.3388 180.223 76.5263C178.632 78.7138 176.428 80.3544 173.611 81.4482C170.81 82.5585 167.587 83.1136 163.941 83.1136ZM164.165 59.4986C165.872 59.4986 167.314 59.076 168.49 58.2308C169.683 57.3691 170.595 56.1428 171.225 54.5518C171.871 52.9444 172.194 51.022 172.194 48.7848C172.194 46.5476 171.879 44.6087 171.249 42.968C170.62 41.3108 169.708 40.0265 168.515 39.1151C167.322 38.2036 165.872 37.7479 164.165 37.7479C162.425 37.7479 160.958 38.2202 159.765 39.1648C158.572 40.0928 157.669 41.3854 157.056 43.0426C156.442 44.6998 156.136 46.6139 156.136 48.7848C156.136 50.9889 156.442 52.8946 157.056 54.5021C157.685 56.093 158.588 57.3277 159.765 58.206C160.958 59.0677 162.425 59.4986 164.165 59.4986ZM191.036 68V29.8182H201.303V36.4801H201.7C202.396 34.1103 203.565 32.3205 205.205 31.1108C206.846 29.8845 208.735 29.2713 210.873 29.2713C211.403 29.2713 211.975 29.3044 212.588 29.3707C213.201 29.437 213.74 29.5282 214.204 29.6442V39.0405C213.707 38.8913 213.019 38.7588 212.141 38.6428C211.262 38.5268 210.459 38.4688 209.73 38.4688C208.172 38.4688 206.78 38.8085 205.553 39.4879C204.344 40.1508 203.383 41.0788 202.67 42.272C201.974 43.4652 201.626 44.8407 201.626 46.3984V68H191.036ZM229.473 68.7209C227.037 68.7209 224.866 68.2983 222.96 67.4531C221.054 66.5914 219.546 65.3236 218.436 63.6499C217.342 61.9595 216.795 59.8549 216.795 57.3359C216.795 55.2147 217.185 53.4332 217.964 51.9915C218.743 50.5497 219.803 49.3897 221.146 48.5114C222.488 47.633 224.013 46.9702 225.719 46.5227C227.443 46.0753 229.249 45.7604 231.138 45.5781C233.359 45.3461 235.149 45.1307 236.508 44.9318C237.867 44.7164 238.853 44.4015 239.466 43.9872C240.079 43.5729 240.386 42.9598 240.386 42.1477V41.9986C240.386 40.4242 239.888 39.2062 238.894 38.3445C237.916 37.4827 236.524 37.0518 234.718 37.0518C232.812 37.0518 231.296 37.4744 230.169 38.3196C229.042 39.1482 228.296 40.1922 227.932 41.4517L218.138 40.6562C218.635 38.3362 219.613 36.331 221.071 34.6406C222.529 32.9337 224.41 31.6245 226.714 30.7131C229.034 29.785 231.719 29.321 234.768 29.321C236.889 29.321 238.919 29.5696 240.858 30.0668C242.813 30.5639 244.545 31.3345 246.053 32.3785C247.578 33.4226 248.779 34.7649 249.658 36.4055C250.536 38.0296 250.975 39.9768 250.975 42.2472V68H240.933V62.7053H240.634C240.021 63.8984 239.201 64.9508 238.173 65.8622C237.146 66.7571 235.911 67.4614 234.469 67.9751C233.028 68.4723 231.362 68.7209 229.473 68.7209ZM232.506 61.4126C234.063 61.4126 235.439 61.1061 236.632 60.4929C237.825 59.8632 238.762 59.018 239.441 57.9574C240.121 56.8968 240.46 55.6953 240.46 54.353V50.3011C240.129 50.5166 239.673 50.7154 239.093 50.8977C238.53 51.0634 237.892 51.2209 237.179 51.37C236.466 51.5026 235.754 51.6269 235.041 51.7429C234.329 51.8423 233.682 51.9335 233.102 52.0163C231.859 52.1986 230.774 52.4886 229.846 52.8864C228.918 53.2841 228.197 53.8227 227.683 54.5021C227.17 55.165 226.913 55.9936 226.913 56.9879C226.913 58.4297 227.435 59.5317 228.479 60.294C229.539 61.0398 230.882 61.4126 232.506 61.4126ZM259.191 68V29.8182H269.283V36.5547H269.73C270.526 34.3175 271.852 32.5526 273.708 31.2599C275.564 29.9673 277.784 29.321 280.37 29.321C282.988 29.321 285.217 29.9756 287.056 31.2848C288.896 32.5774 290.122 34.334 290.735 36.5547H291.133C291.912 34.3672 293.321 32.6188 295.359 31.3097C297.414 29.9839 299.842 29.321 302.642 29.321C306.205 29.321 309.097 30.4562 311.318 32.7266C313.555 34.9803 314.674 38.1787 314.674 42.3217V68H304.109V44.4098C304.109 42.2886 303.546 40.6977 302.419 39.6371C301.292 38.5765 299.883 38.0462 298.193 38.0462C296.27 38.0462 294.771 38.6593 293.694 39.8857C292.616 41.0954 292.078 42.6946 292.078 44.6832V68H281.811V44.1861C281.811 42.3134 281.273 40.822 280.196 39.7116C279.135 38.6013 277.735 38.0462 275.995 38.0462C274.818 38.0462 273.757 38.3445 272.813 38.9411C271.885 39.5211 271.147 40.3414 270.6 41.402C270.054 42.446 269.78 43.6723 269.78 45.081V68H259.191Z" fill="white"/>
</svg>
