<svg width="40" height="40" viewBox="0 0 40 40" fill="none" xmlns="http://www.w3.org/2000/svg">
<path d="M20.4857 17.39V23.6H30.342C29.9151 26.21 27.3437 31.34 20.4857 31.34C14.4866 31.34 9.68571 26.21 9.68571 20C9.68571 13.79 14.5714 8.66 20.4857 8.66C23.9134 8.66 26.1429 10.19 27.4286 11.45L32.142 6.77C29.1437 3.8 25.1991 2 20.4857 2C10.7991 2 3 10.01 3 20C3 29.99 10.7991 38 20.4857 38C30.5991 38 37.2 30.71 37.2 20.45C37.2 19.28 37.1151 18.38 36.9429 17.48H20.4857V17.39Z" fill="white"/>
</svg>
