<svg width="40" height="40" viewBox="0 0 40 40" fill="none" xmlns="http://www.w3.org/2000/svg">
<path d="M35.6981 9.18783L35.7952 8.69734C38.2905 9.19114 39.9091 11.6213 39.4096 14.1239L39.4095 14.1243C39.3509 14.4167 39.2858 14.7072 39.2143 14.9956C38.1732 19.1949 35.7843 22.9417 32.6204 25.7814L34.4291 29.5833C34.5832 29.9072 34.6978 30.2406 34.7747 30.5774C35.3102 32.9212 34.0177 35.4576 31.5669 36.1333C31.517 36.1473 31.467 36.1605 31.4168 36.1728C31.0612 36.2599 30.7004 36.3037 30.339 36.3037M35.6981 9.18783L30.339 35.8037M35.6981 9.18783L35.7959 8.69749C35.4984 8.63814 35.1949 8.60776 34.8909 8.60776C32.6991 8.60776 30.7969 10.167 30.3677 12.3154C30.0427 13.9398 29.34 15.475 28.3653 16.8322M35.6981 9.18783C37.9207 9.62766 39.3649 11.793 38.9193 14.0261C38.8622 14.3111 38.7987 14.5942 38.729 14.8753C37.6837 19.0915 35.2418 22.8491 32.007 25.6559L33.9776 29.7982C34.1158 30.0886 34.2184 30.3872 34.2873 30.6888C34.7696 32.7995 33.6003 35.0544 31.4334 35.6514L28.3653 16.8322M30.339 36.3037V35.8037M30.339 36.3037C30.3393 36.3037 30.3396 36.3037 30.3399 36.3037L30.339 35.8037M30.339 36.3037C30.2281 36.3039 30.1178 36.3 30.0082 36.2923C28.3602 36.1761 26.8849 35.179 26.1698 33.6723M30.339 35.8037C30.2399 35.8039 30.1413 35.8005 30.0433 35.7935C28.5743 35.69 27.2588 34.8007 26.6215 33.4579M26.1698 33.6723L26.17 33.6727L26.6215 33.4579M26.1698 33.6723L24.6056 30.3842L24.6006 30.3858L24.5975 30.3794C22.7462 30.958 20.811 31.2738 18.848 31.2738C17.0851 31.2738 15.303 30.9909 13.5789 30.4784L12.0562 33.6784L12.0559 33.6789C10.9299 36.0375 8.05777 37.0054 5.72339 35.766L5.72324 35.7659C3.78321 34.735 2.94002 32.4888 3.46767 30.4581C3.54337 30.1667 3.64727 29.8794 3.78024 29.6001L5.48895 26.0092C4.242 24.9162 3.14572 23.6889 2.26304 22.3638C1.69219 21.5068 1.21005 20.6079 0.834567 19.6773L0.83438 19.6768C0.434206 18.6821 0.405395 17.6278 0.682959 16.6707C0.980848 15.6435 1.63233 14.7258 2.55846 14.1105C2.81383 13.9409 3.08967 13.7945 3.38409 13.6754L3.38516 13.6749C5.74441 12.7265 8.43301 13.8642 9.38856 16.2237L9.38901 16.2248C9.48921 16.4739 9.61225 16.7229 9.75633 16.9704C9.76346 16.9826 9.77063 16.9948 9.77785 17.007L14.9496 6.13108L14.9498 6.1307C15.4639 5.05196 16.3634 4.23558 17.4372 3.8158C17.9624 3.61049 18.5293 3.5 19.1131 3.5H19.1134C19.6964 3.50042 20.2629 3.61127 20.7879 3.81658C21.862 4.2367 22.7635 5.05312 23.2765 6.13094L23.2765 6.13108L28.3653 16.8322M26.1698 33.6723L26.6215 33.4579M26.6215 33.4579L25.0819 30.2215L24.8663 29.7684L24.8614 29.77L24.8604 29.7678L24.8422 29.7296L24.8558 29.77L24.4087 29.9822M24.4087 29.9822L24.3806 29.9232C24.379 29.9237 24.3774 29.9242 24.3758 29.9247L24.4041 29.9844L24.4087 29.9822Z" fill="#FF536A" stroke="white"/>
<path fill-rule="evenodd" clip-rule="evenodd" d="M13.314 29.8714L16.8962 22.3378C14.1602 21.757 11.4073 20.0653 9.85035 18.0071L6.10461 25.879C8.18621 27.644 10.6852 29.0312 13.314 29.8714Z" fill="#1A007F"/>
<path fill-rule="evenodd" clip-rule="evenodd" d="M28.2632 17.7815C26.4637 19.9863 23.9646 21.6216 21.2907 22.2588L24.8616 29.7699C27.4678 28.8902 29.9048 27.4692 32.0089 25.6478L28.2632 17.7815Z" fill="#4E000A"/>
<path fill-rule="evenodd" clip-rule="evenodd" d="M6.10463 25.8792L4.23177 29.8151C3.27841 31.817 3.99484 34.2812 5.95797 35.3244C8.03956 36.4296 10.6006 35.5669 11.6048 33.4635L13.314 29.8715C10.6745 29.0212 8.22571 27.665 6.10463 25.8792Z" fill="#1A007F"/>
<path fill-rule="evenodd" clip-rule="evenodd" d="M35.6981 9.18774C35.4324 9.13473 35.1616 9.10767 34.8909 9.10767C32.9373 9.10767 31.2405 10.4988 30.858 12.4132C30.4631 14.3868 29.538 16.2251 28.2631 17.7871L32.0032 25.6591C35.4555 22.6648 38.0054 18.5879 38.9192 14.026C39.3649 11.7929 37.9207 9.62758 35.6981 9.18774Z" fill="#FF9396"/>
<path fill-rule="evenodd" clip-rule="evenodd" d="M21.2906 22.2588C20.4896 22.4505 19.6716 22.552 18.8536 22.552C18.2162 22.552 17.5562 22.4787 16.8961 22.3377C14.1602 21.7569 11.4073 20.0652 9.85032 18.007C9.46108 17.4939 9.14517 16.9582 8.92517 16.4112C8.07335 14.3079 5.67586 13.2929 3.5717 14.1387C1.46755 14.9902 0.452138 17.3867 1.29831 19.4901C2.26295 21.881 3.96658 24.0745 6.10459 25.879C8.22397 27.6648 10.6705 29.0204 13.3084 29.8714C15.1192 30.4522 16.9977 30.7736 18.848 30.7736C20.9014 30.7736 22.9265 30.4183 24.8558 29.7699L21.2906 22.2588Z" fill="#002DC8"/>
<path fill-rule="evenodd" clip-rule="evenodd" d="M33.9776 29.7982L32.0032 25.6479L28.2631 17.7816L28.2575 17.7872C28.2575 17.7872 28.2575 17.7816 28.2631 17.7816L22.8251 6.3458C22.1447 4.91633 20.6967 4.00113 19.1132 4C17.528 4 16.0839 4.91351 15.4013 6.3458L9.85602 18.0071C11.413 20.0653 14.1659 21.757 16.9018 22.3378L18.6957 18.571C18.865 18.2158 19.3727 18.2158 19.5419 18.571L21.2963 22.2589L24.8672 29.77L26.6216 33.4578C27.3013 34.8901 28.7528 35.8065 30.3391 35.8036C30.7058 35.8036 31.0724 35.7529 31.4335 35.6514C33.91 34.9691 35.0833 32.1214 33.9776 29.7982Z" fill="#FF536A"/>
<path fill-rule="evenodd" clip-rule="evenodd" d="M13.314 29.8714L16.8961 22.3378C14.1601 21.757 11.4072 20.0653 9.85029 18.0071L6.10455 25.879C8.18614 27.644 10.6852 29.0312 13.314 29.8714Z" fill="#1A007F"/>
<path fill-rule="evenodd" clip-rule="evenodd" d="M28.2631 17.7815C26.4636 19.9863 23.9646 21.6216 21.2906 22.2588L24.8615 29.7699C27.4677 28.8902 29.9047 27.4692 32.0089 25.6478L28.2631 17.7815Z" fill="#4E000A"/>
<path fill-rule="evenodd" clip-rule="evenodd" d="M6.10457 25.8792L4.23171 29.8151C3.27835 31.817 3.99478 34.2812 5.9579 35.3244C8.03949 36.4296 10.6006 35.5669 11.6047 33.4635L13.314 29.8715C10.6745 29.0212 8.22565 27.665 6.10457 25.8792Z" fill="#1A007F"/>
<path fill-rule="evenodd" clip-rule="evenodd" d="M35.6981 9.18774C35.4324 9.13473 35.1616 9.10767 34.8908 9.10767C32.9373 9.10767 31.2404 10.4988 30.8579 12.4132C30.4631 14.3868 29.5379 16.2251 28.263 17.7871L32.0031 25.6591C35.4555 22.6648 38.0053 18.5879 38.9192 14.026C39.3648 11.7929 37.9207 9.62758 35.6981 9.18774Z" fill="#FF9396"/>
<path fill-rule="evenodd" clip-rule="evenodd" d="M21.2905 22.2588C20.4895 22.4505 19.6715 22.552 18.8536 22.552C18.2161 22.552 17.5561 22.4787 16.8961 22.3377C14.1601 21.7569 11.4072 20.0652 9.85026 18.007C9.46102 17.4939 9.14512 16.9582 8.92511 16.4112C8.07329 14.3079 5.6758 13.2929 3.57164 14.1387C1.46749 14.9902 0.452076 17.3867 1.29825 19.4901C2.26289 21.881 3.96652 24.0745 6.10453 25.879C8.22391 27.6648 10.6705 29.0204 13.3083 29.8714C15.1191 30.4522 16.9976 30.7736 18.8479 30.7736C20.9013 30.7736 22.9265 30.4183 24.8558 29.7699L21.2905 22.2588Z" fill="#002DC8"/>
<path fill-rule="evenodd" clip-rule="evenodd" d="M33.9776 29.7982L32.0032 25.6479L28.2631 17.7816L28.2574 17.7872C28.2574 17.7872 28.2574 17.7816 28.2631 17.7816L22.825 6.3458C22.1447 4.91633 20.6966 4.00113 19.1131 4C17.5279 4 16.0838 4.91351 15.4012 6.3458L9.85596 18.0071C11.4129 20.0653 14.1658 21.757 16.9018 22.3378L18.6957 18.571C18.8649 18.2158 19.3726 18.2158 19.5418 18.571L21.2962 22.2589L24.8671 29.77L26.6215 33.4578C27.3013 34.8901 28.7527 35.8065 30.339 35.8036C30.7057 35.8036 31.0724 35.7529 31.4334 35.6514C33.9099 34.9691 35.0833 32.1214 33.9776 29.7982Z" fill="#FF536A"/>
</svg>
