<svg width="40" height="40" viewBox="0 0 40 40" fill="none" xmlns="http://www.w3.org/2000/svg">
<path fill-rule="evenodd" clip-rule="evenodd" d="M35.3109 9.59551L36.2316 7.29289C36.2316 7.29289 35.0597 6.01366 33.6367 4.56387C32.2137 3.11407 29.2003 3.96689 29.2003 3.96689L25.7683 0H19.7414H13.7145L10.2825 3.96689C10.2825 3.96689 7.26905 3.11407 5.84603 4.56387C4.42302 6.01366 3.25112 7.29289 3.25112 7.29289L4.1719 9.59551L3 13.0068C3 13.0068 6.44663 26.3069 6.85052 27.9311C7.64573 31.1292 8.18983 32.3658 10.4499 33.9862C12.71 35.6065 16.8116 38.4208 17.4813 38.8472C18.1509 39.2737 18.988 40 19.7414 40C20.4947 40 21.3318 39.2737 22.0015 38.8472C22.6711 38.4208 26.7728 35.6065 29.0328 33.9862C31.2929 32.3658 31.837 31.1292 32.6322 27.9311C33.036 26.3069 36.4828 13.0068 36.4828 13.0068L35.3109 9.59551Z" fill="url(#paint0_linear_308_3744)"/>
<path fill-rule="evenodd" clip-rule="evenodd" d="M19.7413 24.8928C19.9708 24.8928 21.4408 25.4215 22.6205 26.0434C23.8001 26.6653 24.655 27.1051 24.9283 27.2794C25.2015 27.4537 25.0349 27.7823 24.786 27.9615C24.5371 28.1408 21.1921 30.7798 20.8675 31.0714C20.5428 31.3632 20.0657 31.8449 19.7413 31.8449C19.417 31.8449 18.9399 31.3632 18.6152 31.0714C18.2905 30.7798 14.9456 28.1408 14.6967 27.9615C14.4477 27.7823 14.2811 27.4537 14.5544 27.2794C14.8277 27.1051 15.6826 26.6653 16.8623 26.0434C18.0418 25.4215 19.5119 24.8928 19.7413 24.8928ZM19.7593 6.09692C19.872 6.10011 20.5067 6.13153 21.4155 6.44017C22.42 6.7813 23.5082 7.20771 24.0104 7.20771C24.5127 7.20771 28.2376 6.48281 28.2376 6.48281C28.2376 6.48281 32.652 11.9195 32.652 13.0815C32.652 14.2435 32.0967 14.5501 31.5383 15.1542C30.98 15.7583 28.5416 18.3964 28.2284 18.7351C27.9153 19.0739 27.2633 19.5876 27.6468 20.5121C28.0303 21.4367 28.596 22.6131 27.9669 23.8064C27.3378 24.9997 26.26 25.7961 25.5695 25.6644C24.8789 25.5327 23.2571 24.6692 22.6606 24.2748C22.0642 23.8803 20.174 22.292 20.174 21.6843C20.174 21.0767 22.1279 19.9856 22.4889 19.7377C22.85 19.4899 24.4965 18.5303 24.5302 18.1537C24.5639 17.777 24.5511 17.6666 24.0652 16.736C23.5792 15.8053 22.7042 14.5634 22.8498 13.7372C22.9955 12.9109 24.4068 12.4813 25.4139 12.0938C26.4209 11.7063 28.36 10.9745 28.6022 10.8608C28.8445 10.7469 28.7819 10.6385 28.048 10.5676C27.3143 10.4968 25.232 10.2152 24.2933 10.4818C23.3545 10.7484 21.7507 11.154 21.6208 11.369C21.4908 11.5841 21.3762 11.5914 21.5097 12.3333C21.643 13.0753 22.3299 16.6355 22.3965 17.2678C22.4633 17.9002 22.5937 18.3182 21.9244 18.4741C21.2551 18.63 20.1285 18.9007 19.7414 18.9007C19.3542 18.9007 18.2275 18.63 17.5583 18.4741C16.889 18.3182 17.0194 17.9002 17.0861 17.2678C17.1528 16.6355 17.8396 13.0753 17.9731 12.3333C18.1064 11.5914 17.9918 11.5841 17.862 11.369C17.7321 11.154 16.1282 10.7484 15.1894 10.4818C14.2506 10.2152 12.1684 10.4968 11.4346 10.5676C10.7009 10.6385 10.6382 10.7469 10.8805 10.8608C11.1227 10.9745 13.0618 11.7063 14.0688 12.0938C15.0759 12.4813 16.4873 12.9109 16.6329 13.7372C16.7786 14.5634 15.9034 15.8053 15.4176 16.736C14.9317 17.6666 14.9188 17.777 14.9525 18.1537C14.9861 18.5303 16.6327 19.4899 16.9938 19.7377C17.3548 19.9856 19.3087 21.0767 19.3087 21.6843C19.3087 22.292 17.4185 23.8803 16.8221 24.2748C16.2257 24.6692 14.6039 25.5327 13.9133 25.6644C13.2227 25.7961 12.145 24.9997 11.5158 23.8064C10.8868 22.6131 11.4525 21.4367 11.8358 20.5121C12.2193 19.5876 11.5675 19.0739 11.2542 18.7351C10.9412 18.3964 8.50263 15.7583 7.9443 15.1542C7.38598 14.5501 6.83075 14.2435 6.83075 13.0815C6.83075 11.9195 11.2451 6.48281 11.2451 6.48281C11.2451 6.48281 14.9701 7.20771 15.4723 7.20771C15.9746 7.20771 17.0627 6.7813 18.0672 6.44017C18.976 6.13153 19.6108 6.10011 19.7234 6.09692H19.7593Z" fill="white"/>
<path d="M29.2003 3.96689L25.7683 0H19.7414H13.7145L10.2825 3.96689C10.2825 3.96689 7.26909 3.11407 5.84607 4.56387C5.84607 4.56387 9.864 4.19434 11.2452 6.48271C11.2452 6.48271 14.9701 7.20761 15.4724 7.20761C15.9746 7.20761 17.0628 6.7812 18.0673 6.44007C19.0718 6.09894 19.7414 6.09647 19.7414 6.09647C19.7414 6.09647 20.4111 6.09894 21.4156 6.44007C22.42 6.7812 23.5082 7.20761 24.0105 7.20761C24.5127 7.20761 28.2377 6.48271 28.2377 6.48271C29.6188 4.19434 33.6368 4.56387 33.6368 4.56387C32.2137 3.11407 29.2003 3.96689 29.2003 3.96689Z" fill="url(#paint1_linear_308_3744)"/>
<defs>
<linearGradient id="paint0_linear_308_3744" x1="3" y1="2028.22" x2="3351.28" y2="2028.22" gradientUnits="userSpaceOnUse">
<stop stop-color="#FF5500"/>
<stop offset="0.409877" stop-color="#FF5500"/>
<stop offset="0.581981" stop-color="#FF2000"/>
<stop offset="1" stop-color="#FF2000"/>
</linearGradient>
<linearGradient id="paint1_linear_308_3744" x1="65.5526" y1="365.466" x2="2784.91" y2="365.466" gradientUnits="userSpaceOnUse">
<stop stop-color="#FF452A"/>
<stop offset="1" stop-color="#FF2000"/>
</linearGradient>
</defs>
</svg>
