<svg width="40" height="40" viewBox="0 0 40 40" fill="none" xmlns="http://www.w3.org/2000/svg">
<g clip-path="url(#clip0_308_3621)">
<path d="M20.0004 29.9995C25.5236 29.9995 30.0008 25.5221 30.0008 19.9989C30.0008 14.4758 25.5236 9.99829 20.0004 9.99829C14.4773 9.99829 10 14.4758 10 19.9989C10 25.5221 14.4773 29.9995 20.0004 29.9995Z" fill="white"/>
<path d="M11.3396 25.0016L2.68031 10.0032C0.924514 13.0434 0 16.4922 0 20.0032C0 23.5141 0.924095 26.963 2.67969 30.0032C4.43528 33.0434 6.96042 35.5681 10.001 37.3229C13.0417 39.0776 16.4909 40.0011 20.0017 40L28.661 25.0016V24.9993C27.7839 26.5203 26.5218 27.7835 25.0016 28.6619C23.4814 29.5401 21.7567 30.0027 20.001 30.0029C18.2454 30.0032 16.5206 29.5412 15.0001 28.6633C13.4797 27.7854 12.2172 26.5227 11.3396 25.002V25.0016Z" fill="#229342"/>
<path d="M28.6604 25.0009L20.0013 39.9994C23.512 40 26.961 39.0759 30.0015 37.3207C33.0419 35.5656 35.5666 33.0406 37.3218 30C39.0769 26.9594 40.0006 23.5103 40 19.9996C39.9994 16.4888 39.0744 13.04 37.3182 10H19.9998L19.9977 10.0015C21.7534 10.0006 23.4783 10.4621 24.999 11.3394C26.5199 12.2169 27.7827 13.4791 28.6608 14.9995C29.5388 16.5198 30.0011 18.2446 30.0011 20.0003C30.001 21.7561 29.5387 23.4808 28.6606 25.0012L28.6604 25.0009Z" fill="#FBC116"/>
<path d="M20.0004 27.9183C24.3729 27.9183 27.9175 24.3738 27.9175 20.001C27.9175 15.6283 24.3729 12.084 20.0004 12.084C15.6279 12.084 12.0834 15.6286 12.0834 20.001C12.0834 24.3735 15.6279 27.9183 20.0004 27.9183Z" fill="#1A73E8"/>
<path d="M20.0004 10.0006H37.3189C35.5639 6.96 33.0394 4.43486 29.999 2.67927C26.9586 0.923796 23.5097 -0.000266473 19.999 5.76409e-08C16.4882 0.000210031 13.0394 0.924731 9.99939 2.68074C6.95928 4.43665 4.43506 6.96202 2.68054 10.0029L11.3399 25.0014L11.3422 25.0026C10.4636 23.4825 10.0008 21.7579 10.0002 20.0022C9.99965 18.2465 10.4614 16.5216 11.339 15.0009C12.2165 13.4803 13.4793 12.2175 14.9997 11.3398C16.5201 10.4621 18.2451 10 20.0009 10.0004L20.0004 10.0006Z" fill="#E33B2E"/>
</g>
<defs>
<clipPath id="clip0_308_3621">
<rect width="40" height="40" fill="white"/>
</clipPath>
</defs>
</svg>
