<svg width="132" height="34" viewBox="0 0 132 34" fill="none" xmlns="http://www.w3.org/2000/svg">
<path d="M20.8279 24.4984H11.9023V33.4979H20.8279V24.4984Z" fill="#7CE8FE"/>
<path d="M26.992 12.4993H11.9023V21.4988H26.992H29.7534V12.4993H26.992Z" fill="#3EC7E3"/>
<path d="M38.6788 0.5H11.9023V9.49933H38.6788V0.5Z" fill="#00A2C7"/>
<path d="M8.92542 12.4995H0V21.4988H8.92542V12.4995Z" fill="#3EC7E3"/>
<path d="M47.5996 33.5H54.5193V19.8681H67.8315V14.1157H54.5193V6.25244H69.2696V0.5H47.5996V33.5Z" fill="white"/>
<path d="M72.6777 6.25244H82.6978V33.5H89.5375V6.25244H99.5577V0.5H72.6777V6.25244Z" fill="white"/>
<path d="M110.474 0.5H102.627L112.679 17L102.436 33.5H110.362L117.074 22.2368H117.33L124.042 33.5H132L121.789 17L131.777 0.5H123.962L117.33 11.7471H117.074L110.474 0.5Z" fill="white"/>
</svg>
