<svg width="40" height="40" viewBox="0 0 40 40" fill="none" xmlns="http://www.w3.org/2000/svg">
<g clip-path="url(#clip0_308_3750)">
<path fill-rule="evenodd" clip-rule="evenodd" d="M19.9404 0C8.91388 0 0 8.97959 0 20.0886C0 28.9686 5.71143 36.4853 13.6347 39.1457C14.6253 39.3457 14.9882 38.7135 14.9882 38.1816C14.9882 37.7159 14.9555 36.1196 14.9555 34.4563C9.40857 35.6539 8.25347 32.0616 8.25347 32.0616C7.36204 29.7335 6.04122 29.1351 6.04122 29.1351C4.22571 27.9045 6.17347 27.9045 6.17347 27.9045C8.18735 28.0375 9.24408 29.9665 9.24408 29.9665C11.0265 33.0261 13.8988 32.1616 15.0543 31.6294C15.2192 30.3322 15.7478 29.4343 16.309 28.9355C11.8849 28.4698 7.2302 26.7404 7.2302 19.0241C7.2302 16.829 8.02204 15.0331 9.27674 13.6363C9.07878 13.1376 8.38531 11.0751 9.4751 8.31469C9.4751 8.31469 11.1588 7.78245 14.9551 10.3767C16.5804 9.93701 18.2566 9.71331 19.9404 9.71143C21.6241 9.71143 23.3404 9.94449 24.9253 10.3767C28.722 7.78245 30.4057 8.31469 30.4057 8.31469C31.4955 11.0751 30.8016 13.1376 30.6037 13.6363C31.8914 15.0331 32.6506 16.829 32.6506 19.0241C32.6506 26.7404 27.9959 28.4363 23.5388 28.9355C24.2653 29.5673 24.8922 30.7645 24.8922 32.6604C24.8922 35.3543 24.8596 37.5163 24.8596 38.1812C24.8596 38.7135 25.2229 39.3457 26.2131 39.1461C34.1363 36.4849 39.8478 28.9686 39.8478 20.0886C39.8804 8.97959 30.9339 0 19.9404 0Z" fill="white"/>
</g>
<defs>
<clipPath id="clip0_308_3750">
<rect width="40" height="40" fill="white"/>
</clipPath>
</defs>
</svg>
