<svg width="40" height="40" viewBox="0 0 40 40" fill="none" xmlns="http://www.w3.org/2000/svg">
<path d="M35.3812 30.647C34.8047 31.9788 34.1224 33.2047 33.3318 34.3317C32.2542 35.8682 31.3718 36.9317 30.6918 37.5223C29.6377 38.4917 28.5083 38.9882 27.2989 39.0165C26.4306 39.0165 25.3836 38.7694 24.1647 38.2682C22.9419 37.7694 21.8182 37.5223 20.7906 37.5223C19.713 37.5223 18.5572 37.7694 17.321 38.2682C16.0829 38.7694 15.0855 39.0306 14.3229 39.0565C13.1631 39.1059 12.0071 38.5953 10.8532 37.5223C10.1167 36.88 9.19557 35.7788 8.09204 34.2188C6.90804 32.5529 5.93463 30.6212 5.17204 28.4188C4.35533 26.04 3.94592 23.7364 3.94592 21.5063C3.94592 18.9517 4.49792 16.7484 5.60357 14.9021C6.47251 13.419 7.62851 12.2492 9.07533 11.3903C10.5222 10.5315 12.0855 10.0939 13.769 10.0659C14.6902 10.0659 15.8982 10.3508 17.3993 10.9108C18.8963 11.4727 19.8575 11.7576 20.2789 11.7576C20.5939 11.7576 21.6617 11.4244 23.4718 10.7602C25.1836 10.1442 26.6283 9.88915 27.8118 9.98962C31.0189 10.2484 33.4283 11.5127 35.0306 13.7903C32.1624 15.5282 30.7436 17.9623 30.7718 21.0849C30.7977 23.5172 31.68 25.5412 33.4142 27.1482C34.2 27.8941 35.0777 28.4706 36.0542 28.88C35.8424 29.4941 35.6189 30.0823 35.3812 30.647ZM28.0259 1.70351C28.0259 3.60988 27.3295 5.38986 25.9412 7.03739C24.2659 8.99598 22.2396 10.1277 20.0422 9.94915C20.0142 9.72045 19.9979 9.47974 19.9979 9.2268C19.9979 7.39668 20.7946 5.43809 22.2095 3.83668C22.9158 3.02586 23.8142 2.35167 24.9036 1.81386C25.9906 1.28407 27.0189 0.991083 27.9859 0.940918C28.0142 1.19577 28.0259 1.45066 28.0259 1.70351Z" fill="white"/>
</svg>
