<svg width="138" height="44" viewBox="0 0 138 44" fill="none" xmlns="http://www.w3.org/2000/svg">
<g clip-path="url(#clip0_4939_33189)">
<path d="M10.5905 10.556H12.1781V34.953C12.1781 40.3551 8.01323 44 0 44V38.8699C3.44076 38.8699 5.15977 37.43 5.15977 34.5024V10.556H10.5905ZM5.92948 6.59381C5.56397 6.23935 5.27355 5.81577 5.07521 5.348C4.87692 4.88022 4.77475 4.37776 4.77475 3.87014C4.77475 3.36252 4.87692 2.86003 5.07521 2.39227C5.27355 1.9245 5.56397 1.50092 5.92948 1.14647C6.286 0.783096 6.71203 0.494323 7.18247 0.297156C7.65296 0.0999891 8.15837 -0.00158691 8.66892 -0.00158691C9.17952 -0.00158691 9.68489 0.0999891 10.1554 0.297156C10.6259 0.494323 11.0519 0.783096 11.4084 1.14647C11.7739 1.50092 12.0643 1.9245 12.2626 2.39227C12.461 2.86003 12.5631 3.36252 12.5631 3.87014C12.5631 4.37776 12.461 4.88022 12.2626 5.348C12.0643 5.81577 11.7739 6.23935 11.4084 6.59381C11.0519 6.95717 10.6259 7.24596 10.1554 7.44311C9.68489 7.6403 9.17952 7.74188 8.66892 7.74188C8.15837 7.74188 7.65296 7.6403 7.18247 7.44311C6.71203 7.24596 6.286 6.95717 5.92948 6.59381Z" fill="white"/>
<path d="M32.4949 10.5562H39.5132V33.6467H32.4949V30.2711C31.4323 31.4985 30.1108 32.4782 28.6243 33.1405C27.1379 33.8027 25.5229 34.1312 23.8943 34.1026C18.6407 34.1026 15.1543 30.863 15.1543 24.7864V10.5615H22.1753V22.1308C22.1753 26.1303 23.7602 28.162 26.9757 28.162C30.0544 28.162 32.4975 25.7756 32.4975 21.0482L32.4949 10.5562Z" fill="white"/>
<path d="M83.3046 19.4376V33.6598H76.289V21.8666C76.289 17.9951 74.7943 16.0602 71.8049 16.062C68.9088 16.062 66.4172 18.491 66.4172 23.1731V33.6598H59.3992V21.8666C59.3992 17.9951 57.9055 16.0602 54.9175 16.062C52.0214 16.062 49.5298 18.491 49.5298 23.1731V33.6598H42.5117V10.5693H49.5298V13.8996C51.8392 11.3799 54.5559 10.1187 57.7713 10.1187C61.8447 10.1187 64.4757 11.6945 65.6934 14.8461C68.1855 11.6856 71.1739 10.1053 74.6587 10.1053C80.0464 10.1053 83.3046 12.985 83.3046 19.4376Z" fill="white"/>
<path d="M109.397 13.2571C111.661 15.4168 112.792 18.3418 112.792 22.08C112.792 25.8182 111.661 28.7459 109.397 30.8576C107.134 33.0174 104.28 34.0972 100.794 34.0972C97.7154 34.0972 95.2248 33.1071 93.3223 31.1269V43.5521H86.3066V10.5561H93.3223V13.0384C95.2248 11.06 97.7154 10.0699 100.794 10.0682C104.28 10.0602 107.134 11.14 109.397 13.2571ZM105.458 22.08C105.458 17.9392 102.878 15.1928 99.3914 15.1928C95.9505 15.1928 93.3223 17.8032 93.3223 22.08C93.3223 26.3568 95.9505 28.9672 99.3914 28.9672C102.878 28.9672 105.458 26.2208 105.458 22.08Z" fill="white"/>
<path d="M137.682 27.265V32.718H115.744V27.265H137.682Z" fill="#1CE7C2"/>
</g>
<defs>
<clipPath id="clip0_4939_33189">
<rect width="138" height="44" fill="white"/>
</clipPath>
</defs>
</svg>
