<svg width="320" height="156" viewBox="0 0 320 156" fill="none" xmlns="http://www.w3.org/2000/svg">
<g clip-path="url(#clip0_6027_33328)">
<path d="M234.325 106.872H85.1837V123.385H234.325V106.872Z" fill="white"/>
<path d="M160 75.2597L85.1837 0V23.3562L160 98.6159L234.816 23.3562V0L160 75.2597Z" fill="white"/>
<path d="M88.8627 140.25H85.1837V155.753H88.8627V140.25Z" fill="white"/>
<path d="M98.6499 140.25H94.1775L89.1574 146.727L95.694 155.753H100.047L93.1103 146.776L98.6499 140.25Z" fill="white"/>
<path d="M108.753 145.703L109.104 143.075H113.38L114.047 140.25H106.141L105.173 148.054L105.545 148.379C108.43 147.751 111.161 148.224 111.161 150.724C111.161 152.003 110.319 153.126 108.501 153.126C107.243 153.044 106.04 152.584 105.046 151.805L103.579 154.376C105.071 155.394 106.824 155.958 108.627 156C112.699 156 114.911 153.931 114.911 150.654C114.911 147.249 112.629 145.477 108.774 145.71" fill="white"/>
<path d="M140.229 152.574C139.468 152.877 138.66 153.047 137.842 153.076C135.286 153.076 133.124 151.275 133.124 147.955C133.124 144.636 135.412 142.906 138.038 142.906C139.733 142.946 141.377 143.491 142.763 144.473L143.009 141.5C141.421 140.559 139.608 140.071 137.764 140.088C133.095 140.088 129.466 142.807 129.466 147.983C129.466 153.16 132.976 155.936 137.715 155.936C139.917 155.865 142.06 155.209 143.929 154.036V147.186H140.25L140.229 152.574Z" fill="white"/>
<path d="M154.411 140.25H150.732V155.753H159.558L160.225 152.878H154.411V140.25Z" fill="white"/>
<path d="M172.631 153.027C170.222 153.027 168.236 151.226 168.236 147.977C168.236 144.728 170.222 142.927 172.631 142.927C175.039 142.927 177.033 144.806 177.033 148.006C177.033 151.205 175.067 153.027 172.631 153.027ZM172.631 140.053C168.109 140.053 164.507 142.956 164.507 147.977C164.507 152.999 168.109 155.93 172.631 155.93C177.152 155.93 180.789 153.027 180.789 148.006C180.789 142.984 177.159 140.053 172.631 140.053Z" fill="white"/>
<path d="M191.51 152.949H190.808V148.598H191.51C194.017 148.598 194.691 149.601 194.691 150.823C194.691 152.045 193.989 152.942 191.51 152.942V152.949ZM190.808 142.92C192.95 142.92 193.715 143.322 193.715 144.495C193.715 145.519 193.097 146.02 190.808 146.02V142.92ZM195.26 147.023C195.806 146.815 196.274 146.44 196.599 145.952C196.923 145.463 197.089 144.885 197.071 144.297C197.071 141.345 194.536 140.271 190.808 140.271H187.129V155.746H191.384C195.681 155.746 198.342 154.467 198.342 150.971C198.415 150.044 198.139 149.123 197.568 148.391C196.997 147.66 196.173 147.171 195.26 147.023Z" fill="white"/>
<path d="M209.203 150.625L211.219 146.126L213.227 150.625H209.203ZM210.917 139.855L203.025 155.753H207.027L208.143 153.252H214.259L215.424 155.753H219.377L211.499 139.855H210.917Z" fill="white"/>
<path d="M228.511 140.25H224.839V155.753H233.658L234.332 152.878H228.511V140.25Z" fill="white"/>
</g>
<defs>
<clipPath id="clip0_6027_33328">
<rect width="149.633" height="156" fill="white" transform="translate(85.1837)"/>
</clipPath>
</defs>
</svg>
