<svg width="400" height="55" viewBox="0 0 400 55" fill="none" xmlns="http://www.w3.org/2000/svg">
<path d="M89.0108 0.466161C86.9728 1.21553 81.8095 2.75997 80.6671 2.97016C80.4752 2.99758 80.2924 3.07982 80.265 3.14379C80.2468 3.20777 80.594 3.80178 81.051 4.45063C81.5079 5.09947 81.974 5.83057 82.0928 6.07731L82.2938 6.52511L82.3212 21.9695C82.3395 31.9763 82.3121 37.688 82.2481 38.1815C82.2024 38.6019 82.0928 39.0497 82.0197 39.1685C81.8095 39.4883 81.3708 39.7259 80.8682 39.7899L80.4204 39.8539V40.2651C80.4204 40.6032 80.4478 40.6672 80.5849 40.6215C80.8956 40.5393 87.448 40.4844 89.7693 40.5484L92.1179 40.6124V40.2377C92.1179 39.863 92.1088 39.8539 91.7432 39.799C91.0304 39.6894 90.7562 39.5066 90.5369 39.0405L90.3359 38.6019V20.5987C90.345 8.75494 90.3724 2.17509 90.4364 1.36175C90.5095 0.466161 90.5095 0.109753 90.4364 0.0640594C90.3084 -0.0273274 90.4547 -0.0638821 89.0108 0.466161Z" fill="white"/>
<path d="M397.989 0.073303C397.469 0.374879 391.921 2.12037 389.536 2.73266C388.787 2.92457 388.156 3.11648 388.147 3.16218C388.129 3.20787 388.467 3.75619 388.906 4.37762C389.344 4.99905 389.801 5.73015 389.938 6.01345L390.176 6.52521V22.5179C390.176 37.8343 390.167 38.5289 390.011 38.9492C389.82 39.4336 389.445 39.6895 388.769 39.7991C388.403 39.854 388.394 39.8631 388.394 40.2378V40.6125L391.3 40.5394C392.899 40.5028 395.504 40.5028 397.103 40.5394L400 40.6125V40.2378V39.8631L399.461 39.7535C398.83 39.6255 398.501 39.3513 398.337 38.7939C398.172 38.2821 398.172 3.79275 398.328 1.59032C398.401 0.484544 398.401 0.109858 398.328 0.0641644C398.191 -0.0272224 398.163 -0.0180838 397.989 0.073303Z" fill="white"/>
<path d="M119.031 2.65041C116.144 3.64653 115.129 7.24717 117.067 9.65978C117.45 10.1441 118.309 10.7381 118.967 10.9849C119.735 11.2682 121.197 11.259 121.937 10.9666C123.619 10.3086 124.743 8.65452 124.743 6.8542C124.743 4.86197 123.601 3.27184 121.746 2.65041C120.987 2.39453 119.79 2.39453 119.031 2.65041Z" fill="white"/>
<path d="M187.672 2.55893C186.621 2.80567 185.479 3.7561 184.939 4.81618C184.09 6.52512 184.364 8.50821 185.652 9.85159C187.946 12.2551 191.848 11.3686 192.918 8.20663C193.091 7.70401 193.119 7.47554 193.082 6.59822C193.045 5.6478 193.018 5.53814 192.707 4.90757C191.94 3.33572 190.496 2.44926 188.769 2.46754C188.366 2.47668 187.873 2.51324 187.672 2.55893Z" fill="white"/>
<path d="M334.375 2.58636C333.416 2.85138 332.374 3.65559 331.871 4.50549C331.423 5.27313 331.259 5.91284 331.259 6.84499C331.259 8.20665 331.707 9.23018 332.675 10.0984C335.326 12.4836 339.456 10.8751 339.904 7.29278C340.041 6.22356 339.621 4.84362 338.899 3.9663C338.46 3.41798 337.61 2.86966 336.879 2.64119C336.194 2.431 335.042 2.40359 334.375 2.58636Z" fill="white"/>
<path d="M255.974 3.46367C250.51 3.82922 245.52 5.98595 241.937 9.5409C239.077 12.383 237.322 15.7918 236.646 19.8219C236.409 21.211 236.363 23.9252 236.555 25.3965C236.92 28.2752 237.798 30.6878 239.342 32.9999C242.23 37.3408 247.274 40.2926 253.096 41.0328C254.348 41.1881 257.016 41.1699 258.305 40.9871C261.924 40.4753 265.205 39.0771 267.855 36.9387C269.125 35.906 269.024 36.0888 270.276 32.5612C270.898 30.8066 271.373 29.3444 271.346 29.317C271.309 29.2804 271.199 29.2256 271.09 29.1982C270.925 29.1434 270.816 29.2713 270.276 30.1852C268.312 33.5117 265.835 35.3394 262.253 36.107C260.992 36.3721 258.25 36.3995 257.053 36.1527C252.356 35.2023 248.791 31.8393 247.101 26.7673C245.62 22.3259 245.785 16.7056 247.521 12.6572C249.075 9.01085 251.707 6.62566 255.216 5.68437C256.038 5.45591 256.258 5.43763 257.848 5.43763C259.429 5.43763 259.666 5.46505 260.452 5.67524C262.253 6.15959 263.587 6.96379 264.985 8.41684C265.497 8.95602 266.182 9.79678 266.557 10.3634C267.252 11.4052 268.367 13.5711 268.887 14.8779C269.052 15.3074 269.235 15.6638 269.28 15.6821C269.326 15.7004 269.445 15.6547 269.545 15.5816C269.719 15.4628 269.701 15.344 269.098 10.8112C268.75 8.25234 268.467 6.15045 268.458 6.14131C268.403 6.07734 266.694 5.31883 265.908 5.00811C262.792 3.76525 259.383 3.23521 255.974 3.46367Z" fill="white"/>
<path d="M3.38131 4.39588V4.83454H3.92049C4.74297 4.83454 6.02239 5.09042 6.62554 5.37372C7.59424 5.83065 8.16084 6.60744 8.40759 7.80461C8.47156 8.10619 8.51725 8.92867 8.51725 9.63235C8.51725 10.7381 8.30706 12.5476 6.99109 22.7007C6.15947 29.1891 5.39182 34.8917 5.2913 35.3851C4.68814 38.3826 3.50011 39.5067 0.62143 39.79L0 39.854V40.2561C0 40.649 0.00913868 40.6673 0.21019 40.6033C0.466073 40.5211 13.2145 40.5211 13.5984 40.6125L13.8908 40.6764V40.2104V39.7443H13.3973C12.7028 39.7443 11.1309 39.5798 10.3907 39.4244C9.15696 39.1686 8.37103 38.6477 8.0329 37.8526C7.80443 37.3134 7.64908 36.098 7.72218 35.2755C7.88668 33.1279 10.5643 8.94694 10.6283 8.97436C10.674 8.9835 13.3882 16.1299 16.669 24.8482C21.7683 38.4466 22.6456 40.7039 22.801 40.7039C22.9472 40.7039 23.7332 38.5745 28.5675 24.9579C31.6472 16.2944 34.1878 9.18455 34.2152 9.15713C34.2426 9.12058 34.2883 9.12058 34.3066 9.13886C34.3706 9.20283 37.0939 34.6266 37.1579 35.7233C37.2218 36.9387 37.1122 37.7703 36.8015 38.3735C36.4085 39.1411 35.3301 39.5889 33.539 39.7169L32.7165 39.7717V40.2195C32.7165 40.649 32.7256 40.6673 32.9267 40.6033C33.1917 40.5211 50.674 40.5211 51.0669 40.6033L51.3594 40.6764V40.2286V39.7809L50.3815 39.6803C47.6856 39.3879 46.8357 38.5014 46.3331 35.4948C46.1138 34.1788 43.6189 11.5241 43.5367 10.0893C43.4179 8.10619 43.756 6.74452 44.5511 5.96773C45.273 5.25492 46.5799 4.84368 48.1426 4.83454H48.8006V4.39588V3.96636H41.4439C35.3301 3.96636 34.0781 3.98464 34.0416 4.08517C34.0142 4.15828 32.3052 9.12972 30.2399 15.143C28.1654 21.1654 26.4656 26.1002 26.4473 26.1185C26.4291 26.1368 26.3925 26.1368 26.3651 26.1094C26.3377 26.0911 24.5465 21.0923 22.3806 15.015L18.4419 3.96636H10.9116H3.38131V4.39588Z" fill="white"/>
<path d="M103.404 10.665C101.558 12.383 98.2499 14.9419 95.5449 16.7422C94.6402 17.3453 93.9091 17.8845 93.9091 17.9485C93.9182 18.0125 94.4025 18.6613 94.9966 19.4015L96.0749 20.7541L96.0566 28.3483C96.0292 36.7011 96.0292 36.7102 96.5776 37.7977C97.4183 39.4518 99.2004 40.6124 101.531 41.0328C102.426 41.1881 104.19 41.1699 105.095 40.9871C106.447 40.7038 107.891 40.055 109.207 39.1228C110.085 38.5105 111.638 36.9021 112.305 35.9243C113.036 34.8459 112.981 34.7362 111.949 35.2115C110.724 35.7689 109.838 35.9425 108.202 35.9425C105.872 35.9517 104.784 35.577 104.272 34.5717L104.044 34.1331L104.016 26.4109L103.998 18.6979L107.398 18.7344L110.806 18.771L111.236 18.1313C111.72 17.4184 112.186 16.3858 112.278 15.8375L112.333 15.481L108.211 15.609C105.945 15.6821 104.062 15.7095 104.026 15.673C103.971 15.6181 104.099 12.8857 104.245 10.9026C104.281 10.3177 104.272 10.1532 104.172 10.1166C104.099 10.0892 103.779 10.3177 103.404 10.665Z" fill="white"/>
<path d="M352.159 10.8844C350.075 12.7578 347.041 15.079 344.364 16.8519C343.55 17.3911 342.883 17.8754 342.883 17.9211C342.883 17.976 343.377 18.634 343.98 19.3833L345.077 20.7633V28.5403C345.077 36.957 345.067 36.8199 345.57 37.8069C347.188 41.0054 352.314 42.1386 356.381 40.2012C358.236 39.3239 359.854 37.9166 361.243 35.9883C361.974 34.9739 362.001 34.6632 361.316 35.0379C359.607 35.9974 356.308 36.2807 354.535 35.6228C353.877 35.3852 353.301 34.8368 353.137 34.2885C353.055 34.0144 353.027 32.0404 353.027 26.3104V18.6979L356.363 18.7436L359.708 18.7893L360.018 18.4238C360.402 17.976 361.106 16.5686 361.243 15.9472C361.307 15.7004 361.343 15.4994 361.325 15.4903C361.307 15.4811 359.9 15.5268 358.191 15.5816C356.482 15.6456 354.617 15.7004 354.06 15.7004L353.027 15.7096V14.7683C353.027 13.8727 353.146 11.9079 353.265 10.7199C353.311 10.2903 353.292 10.1533 353.192 10.1167C353.119 10.0802 352.698 10.3909 352.159 10.8844Z" fill="white"/>
<path d="M122.55 15.4263C120.649 16.2488 118.053 17.2449 116.006 17.9303C115.083 18.241 114.325 18.5243 114.325 18.57C114.325 18.6065 114.69 19.2737 115.138 20.0596C115.65 20.9369 115.997 21.6589 116.061 21.9513C116.134 22.2894 116.153 24.7569 116.134 30.5142C116.107 38.5289 116.107 38.602 115.915 39.0224C115.705 39.4793 115.367 39.6895 114.709 39.7991C114.334 39.854 114.325 39.8631 114.325 40.2378V40.6125L117.231 40.5394C118.83 40.5028 121.435 40.5028 123.034 40.5394L125.931 40.6125V40.2378V39.8631L125.392 39.7535C125.045 39.6803 124.77 39.5707 124.624 39.4245C124.14 38.931 124.149 39.1229 124.149 28.3667C124.149 22.8834 124.176 17.5922 124.213 16.596C124.277 14.9145 124.277 14.7957 124.122 14.8049C124.039 14.814 123.326 15.0882 122.55 15.4263Z" fill="white"/>
<path d="M192.086 14.9328C191.282 15.3714 186.219 17.3362 183.943 18.0947C183.112 18.3689 182.774 18.5243 182.774 18.6248C182.774 18.6979 183.112 19.3285 183.514 20.0321C183.925 20.7267 184.309 21.4852 184.382 21.7137C184.492 22.0609 184.51 23.5779 184.51 30.1578C184.51 35.7598 184.483 38.3278 184.409 38.6659C184.263 39.3239 183.962 39.6072 183.24 39.7534L182.682 39.8722V40.2469V40.6124L185.077 40.5485C187.425 40.4845 193.905 40.5393 194.224 40.6216C194.352 40.6673 194.38 40.6033 194.38 40.2743V39.8722L193.85 39.7626C192.89 39.5615 192.68 39.2691 192.552 37.9348C192.378 36.1528 192.479 16.8336 192.671 15.0241C192.698 14.7957 192.415 14.75 192.086 14.9328Z" fill="white"/>
<path d="M205.62 15.1338C204.058 15.8649 198.392 18.0125 197.131 18.3598C196.902 18.4238 196.756 18.5152 196.756 18.5974C196.756 18.6797 197.076 19.2828 197.459 19.9408C198.657 21.997 198.538 21.01 198.565 28.8967C198.584 32.6618 198.556 36.427 198.51 37.2677C198.401 39.3057 198.273 39.5433 197.194 39.7626L196.664 39.8723V40.2469V40.6125L199.589 40.5394C201.197 40.5028 203.829 40.5028 205.438 40.5394L208.362 40.6125V40.2469V39.8723L207.814 39.7626C207.11 39.6164 206.827 39.3696 206.644 38.7391C206.516 38.3004 206.498 37.1215 206.461 29.0886L206.434 19.9317L206.872 19.7763C207.146 19.6758 207.704 19.6027 208.38 19.5752C209.285 19.5296 209.532 19.557 210.071 19.7215C211.762 20.2332 212.712 21.7685 213.169 24.7112C213.352 25.8444 213.452 34.8094 213.315 37.2312C213.196 39.3057 213.077 39.5433 211.999 39.7626L211.469 39.8723V40.2469V40.6125L214.393 40.5394C216.002 40.5028 218.634 40.5028 220.242 40.5394L223.167 40.6125V40.2469V39.8723L222.618 39.7626C222.317 39.6986 221.969 39.5524 221.832 39.4427C221.311 38.9858 221.311 39.0589 221.247 29.3262C221.184 19.7032 221.22 20.2698 220.699 18.8898C220.032 17.0895 218.223 15.4811 216.404 15.0607C214.119 14.5398 211.396 15.5816 207.585 18.4512C207.055 18.8533 206.58 19.1823 206.525 19.1823C206.479 19.1823 206.461 19.0909 206.479 18.9721C206.507 18.8624 206.552 17.9851 206.58 17.0347C206.616 16.0751 206.653 15.1978 206.662 15.0699C206.68 14.7409 206.425 14.75 205.62 15.1338Z" fill="white"/>
<path d="M307.425 15.1338C306.228 15.7095 302.326 17.2357 300.416 17.8754C299.228 18.2775 298.561 18.5425 298.561 18.6248C298.561 18.6888 298.871 19.2736 299.255 19.9225C299.639 20.5713 300.041 21.3116 300.142 21.5766L300.343 22.0609L300.37 35.9974C300.388 49.7237 300.352 52.0724 300.105 52.5841C299.922 52.9497 299.575 53.1873 298.999 53.3061C298.524 53.4157 298.515 53.4249 298.488 53.7813L298.46 54.1377H305.323H312.177V53.7173V53.3061L310.733 53.2055C309.947 53.1507 309.18 53.0502 309.043 52.9862C308.54 52.7578 308.412 52.31 308.33 50.5279C308.22 48.1976 308.229 40.4114 308.339 40.3383C308.385 40.3109 308.504 40.3291 308.604 40.384C308.705 40.4297 309.262 40.6033 309.856 40.7495C313.539 41.7 317.578 40.9597 320.905 38.7116C322.02 37.9531 323.774 36.1985 324.505 35.0927C327.009 31.3184 327.731 26.1551 326.37 21.7868C325.703 19.6575 324.277 17.6744 322.568 16.5137C320.411 15.0424 317.459 14.5581 314.919 15.2526C313.365 15.673 311.227 16.9433 309.244 18.6065C308.75 19.0269 308.33 19.3285 308.312 19.2919C308.284 19.2371 308.376 16.6051 308.449 15.3714C308.476 14.8962 308.458 14.8414 308.293 14.8231C308.193 14.814 307.8 14.9602 307.425 15.1338ZM313.045 19.8494C314.06 20.1875 314.837 20.6627 315.65 21.4669C317.706 23.4957 318.675 26.813 318.392 30.8798C318.154 34.2519 317.295 36.692 315.814 38.1907C314.8 39.2234 313.758 39.6163 312.26 39.5432C310.057 39.4427 308.823 37.8251 308.43 34.5352C308.366 33.9412 308.339 31.4464 308.357 26.7217L308.385 19.7763L308.979 19.6666C309.317 19.6026 310.158 19.5661 310.944 19.5843C312.141 19.6026 312.406 19.6392 313.045 19.8494Z" fill="white"/>
<path d="M338.451 15.1064C336.897 15.8375 331.908 17.7566 330.208 18.2684C329.769 18.3964 329.541 18.5152 329.541 18.6065C329.541 18.6797 329.861 19.2828 330.244 19.9408C331.442 21.997 331.323 21.0009 331.35 28.9789C331.369 32.7806 331.341 36.5458 331.295 37.35C331.177 39.2965 331.04 39.5433 329.979 39.7626L329.449 39.8723V40.2469V40.6125L332.374 40.5394C333.982 40.5028 336.614 40.5028 338.223 40.5394L341.147 40.6125V40.2469V39.8723L340.599 39.7626C340.297 39.6986 339.95 39.5524 339.813 39.4427C339.301 38.9949 339.292 38.9127 339.246 30.9255C339.219 25.0767 339.319 16.7057 339.438 15.0699C339.465 14.7409 339.21 14.75 338.451 15.1064Z" fill="white"/>
<path d="M141.33 14.9785C135.061 15.5176 129.696 20.1692 128.408 26.1642C127.887 28.5494 128.024 31.3184 128.755 33.466C129.157 34.6266 129.449 35.2298 130.098 36.2076C132.209 39.3696 135.7 41.1334 139.867 41.1334C141.247 41.1334 142.042 41.0054 143.276 40.5942C146.146 39.6346 148.75 37.3043 150.048 34.5261C150.477 33.6122 150.578 33.2558 150.423 33.2558C150.359 33.2558 149.993 33.5574 149.609 33.9138C147.846 35.5953 145.789 36.1528 143.066 35.7141C139.941 35.2024 137.555 32.9908 136.495 29.6003C135.709 27.1055 135.673 23.6876 136.413 21.3298C137.217 18.771 138.817 17.0621 140.717 16.7148C142.207 16.4498 142.865 16.989 143.751 19.2279C144.355 20.745 144.857 21.4761 145.561 21.8599C146.456 22.3442 147.644 22.3534 148.467 21.8782C148.96 21.5857 149.573 20.9095 149.801 20.3977C150.075 19.7854 150.002 18.6888 149.646 17.9942C148.604 15.9563 145.022 14.6586 141.33 14.9785Z" fill="white"/>
<path d="M164.953 14.9784C162.714 15.1795 160.201 16.0111 158.428 17.1534C156.034 18.6979 154.115 20.9551 153.128 23.4134C151.775 26.7765 151.903 30.5416 153.493 33.7127C156.838 40.384 165.803 43.1256 172.812 39.6072C174.649 38.6842 176.514 37.1397 177.702 35.5496C178.844 34.0326 179.758 31.9033 180.069 30.0664C180.26 28.9423 180.26 26.877 180.069 25.7529C179.054 19.7214 173.571 15.2617 166.781 14.951C166.251 14.9236 165.428 14.9419 164.953 14.9784ZM167.594 16.4406C169.349 17.3819 170.528 19.9773 171.14 24.2999C171.268 25.2229 171.305 26.0545 171.295 28.6408C171.295 31.4829 171.277 31.9855 171.094 33.1278C170.4 37.5692 168.865 39.8356 166.434 39.991C165.374 40.0641 164.834 39.8265 163.948 38.9309C162.906 37.88 162.257 36.4635 161.718 34.06C161.243 31.9398 161.161 30.9985 161.161 27.5441C161.161 24.2725 161.215 23.5688 161.572 21.7867C162.093 19.2553 163.061 17.4276 164.323 16.6142C164.953 16.2121 165.501 16.0751 166.324 16.1025C166.9 16.1299 167.11 16.1847 167.594 16.4406Z" fill="white"/>
<path d="M284.487 14.9876C282.888 15.1612 280.768 16.0477 279.104 17.2357C277.935 18.0765 276.482 19.4838 275.668 20.5622C274.581 22.0061 273.795 23.7881 273.795 24.8117C273.795 25.3508 273.932 25.4331 274.745 25.3691C275.312 25.3143 278.383 24.7568 278.83 24.6198C278.949 24.5741 278.949 24.4918 278.803 23.7699C278.721 23.3312 278.602 22.527 278.556 21.9787C278.346 19.5386 278.931 18.7253 280.887 18.7253C281.307 18.7253 281.864 18.771 282.129 18.8258C283.857 19.1914 285.054 20.416 285.31 22.0701C285.364 22.4265 285.392 23.6693 285.383 24.8939L285.355 27.0781L280.969 28.9606C278.556 29.9933 276.335 30.9711 276.034 31.1265C274.745 31.7936 273.959 32.5887 273.585 33.6031C273.338 34.2885 273.32 35.9426 273.557 36.8108C273.923 38.1541 274.855 39.4518 275.924 40.0915C277.542 41.0694 279.854 41.2065 281.407 40.4205C282.522 39.8539 283.601 38.9218 284.679 37.5967C284.944 37.2677 285.182 37.0027 285.209 37.0027C285.237 37.0027 285.419 37.3042 285.602 37.6698C286.653 39.7077 288.399 40.8044 290.893 40.9871C291.871 41.0602 292.785 40.8683 293.717 40.4114C294.677 39.9453 295.901 38.7116 296.431 37.6881C296.815 36.9387 297.153 35.8786 297.053 35.7141C297.016 35.6684 296.888 35.705 296.733 35.8146C296.139 36.235 295.051 36.3995 294.266 36.1802C293.845 36.0614 293.397 35.6044 293.205 35.0835C293.023 34.5901 293.014 33.1187 293.178 27.0415C293.233 24.8574 293.269 22.198 293.251 21.1471L293.215 19.2279L292.876 18.5151C292.273 17.254 291.03 16.2304 289.349 15.6182C287.896 15.0881 285.913 14.8322 284.487 14.9876ZM285.301 32.1957C285.273 34.4804 285.227 36.3812 285.191 36.4269C285.145 36.4635 284.697 36.5 284.186 36.5C283.354 36.5 283.208 36.4726 282.787 36.2533C281.709 35.6867 281.179 34.654 281.179 33.073C281.17 32.0312 281.38 31.3824 281.965 30.6696C282.303 30.2492 285.063 28.0468 285.255 28.0468C285.291 28.0468 285.319 29.9019 285.301 32.1957Z" fill="white"/>
<path d="M374.421 14.9877C371.99 15.271 369.23 16.7788 366.964 19.0544C365.026 21.0101 363.756 23.3496 363.829 24.8117L363.856 25.3509L364.286 25.3783C364.88 25.4149 368.718 24.7204 368.892 24.5467C368.919 24.5193 368.883 24.2086 368.8 23.8522C368.718 23.5049 368.609 22.719 368.545 22.1158C368.362 20.2424 368.618 19.4017 369.513 18.9539C369.906 18.7619 370.098 18.7254 370.848 18.7254C373.059 18.7254 374.604 19.7124 375.143 21.4487C375.307 21.9696 375.325 22.3078 375.325 24.565V27.0873L371.378 28.7688C365.949 31.0717 365.017 31.547 364.277 32.3969C363.153 33.6763 363.034 36.0249 363.994 37.9806C365.383 40.8044 369.148 41.8006 372.008 40.1008C372.547 39.7809 374.073 38.3279 374.795 37.4597L375.207 36.9571L375.463 37.4597C376.331 39.1869 377.601 40.2561 379.392 40.7587C380.48 41.0695 382.07 41.0512 382.975 40.7313C384.601 40.1465 385.981 38.7939 386.731 37.0302C386.95 36.5093 387.096 35.7233 386.968 35.7233C386.922 35.7233 386.639 35.8513 386.347 35.9975C385.89 36.2351 385.707 36.2717 385.113 36.2717C383.888 36.2625 383.404 35.897 383.121 34.7638C382.984 34.1972 382.984 33.722 383.13 28.1474C383.304 21.1928 383.313 20.0962 383.176 19.4382C383.057 18.8442 382.673 18.0491 382.262 17.5374C381.54 16.6418 379.922 15.7188 378.332 15.3075C377.583 15.1156 375.673 14.8597 375.234 14.8963C375.161 14.9054 374.795 14.942 374.421 14.9877ZM375.252 32.2232L375.207 36.4453L374.805 36.5093C372.922 36.7926 371.533 35.7964 371.204 33.9413C370.966 32.5705 371.277 31.3825 372.118 30.5051C372.538 30.0665 375.234 27.9189 375.289 27.9829C375.298 27.992 375.28 29.902 375.252 32.2232Z" fill="white"/>
<path d="M61.5033 15.3074C59.3922 15.9928 55.2798 16.8153 52.3463 17.126C51.8254 17.1808 51.8163 17.19 51.8163 17.4824C51.8163 17.7657 51.8346 17.784 52.3463 17.9302C53.0409 18.1221 53.6166 18.5425 53.8359 19.0269C54.0004 19.3924 54.0096 19.7397 54.0096 26.8587C54.0096 31.2818 54.0461 34.6449 54.101 35.1292C54.4025 37.7337 55.5814 39.662 57.464 40.6033C58.981 41.3618 60.9824 41.3161 63.1117 40.4753C64.6287 39.8722 66.5296 38.7755 67.8364 37.752C68.1197 37.5236 68.3756 37.3591 68.3847 37.3773C68.4304 37.4322 68.275 39.7168 68.1837 40.4297C68.1288 40.7769 68.1106 41.0876 68.138 41.1059C68.1654 41.1333 68.4395 41.0876 68.7503 40.9962C70.313 40.5667 73.74 39.6986 75.4855 39.2873C78.291 38.6293 78.1357 38.675 78.1357 38.4191C78.1357 38.1907 78.0717 38.1541 77.4777 38.0627C77.039 37.9805 76.6278 37.5875 76.4724 37.0849C76.3811 36.7559 76.3536 34.9647 76.3719 27.6812C76.3811 22.728 76.4267 17.9211 76.4724 16.9889C76.5273 16.0568 76.5273 15.2617 76.4907 15.2252C76.4542 15.1795 75.9698 15.2709 75.4306 15.4262C73.9502 15.8466 71.9488 16.3127 70.5049 16.5777C69.3625 16.7879 66.6484 17.1717 66.3011 17.1717C66.2097 17.1717 66.164 17.2722 66.164 17.4824C66.164 17.7749 66.1914 17.7931 66.5844 17.8937C67.4251 18.1039 67.8821 18.442 68.2294 19.0908C68.3938 19.3924 68.403 19.8219 68.4304 28.1473L68.4578 36.8838L68.1654 36.9478C67.6079 37.0575 65.5791 37.0026 64.976 36.8564C63.5047 36.5092 62.7461 35.577 62.2984 33.5574C62.1064 32.6801 62.0973 32.4973 62.0973 25.8535C62.0973 22.1066 62.1156 18.1861 62.143 17.126C62.1978 14.9693 62.2344 15.079 61.5033 15.3074Z" fill="white"/>
</svg>
