<svg width="150" height="54" viewBox="0 0 150 54" fill="none" xmlns="http://www.w3.org/2000/svg">
<path d="M5.59991 54C5.09991 54 4.89991 53.6037 4.89991 53.3064V16.6475C4.79991 15.0622 4.99991 9.41478 9.39991 4.85718C10.7999 3.371 14.6999 0.10142 20.5999 0.0023414C26.2999 -0.0967369 30.2999 2.97469 31.6999 4.26271C33.1999 5.6498 36.5999 9.41478 36.7999 15.3595C36.9999 21.4032 33.5999 25.3664 32.1999 26.8526C28.0999 31.0138 23.0999 31.4102 21.1999 31.5092C20.7999 31.5092 20.4999 31.1129 20.4999 30.8157C20.4999 30.3203 20.7999 30.1221 21.1999 30.1221C22.9999 30.1221 27.4999 29.5277 31.1999 25.8618C32.1999 24.871 35.4999 21.106 35.4999 15.4586C35.3999 9.91017 31.9999 6.34335 30.8999 5.45165C29.8999 4.55994 26.3999 1.68667 21.0999 1.68667C20.9999 1.68667 20.8999 1.68667 20.7999 1.68667C15.3999 1.78575 11.8999 4.7581 10.5999 6.04612C6.49992 10.1083 6.39991 15.2604 6.39991 16.6475V53.2074C6.29991 53.7028 5.99991 54 5.59991 54Z" fill="#6633CC"/>
<path d="M20.5992 21.2051C17.5992 21.2051 15.1992 18.8272 15.1992 15.8549C15.1992 12.8825 17.5992 10.5046 20.5992 10.5046C23.5992 10.5046 25.9992 12.8825 25.9992 15.8549C25.9992 18.8272 23.5992 21.2051 20.5992 21.2051ZM20.5992 11.8917C18.4992 11.8917 16.6992 13.6751 16.6992 15.7558C16.6992 17.8364 18.4992 19.6198 20.5992 19.6198C22.6992 19.6198 24.4992 17.8364 24.4992 15.7558C24.4992 13.6751 22.7992 11.8917 20.5992 11.8917Z" fill="#6633CC"/>
<path d="M10.5008 41.2189C10.0008 41.2189 9.80078 40.8225 9.80078 40.5253V16.7465C9.80078 16.2511 10.2008 16.053 10.5008 16.053C10.9008 16.053 11.2008 16.4493 11.2008 16.7465V40.5253C11.3008 40.8225 10.9008 41.2189 10.5008 41.2189Z" fill="#6633CC"/>
<path d="M15.8992 48.5507C15.3992 48.5507 15.1992 48.1544 15.1992 47.8571V35.1751C15.1992 34.6797 15.5992 34.4816 15.8992 34.4816C16.2992 34.4816 16.5992 34.8779 16.5992 35.1751V47.8571C16.6992 48.2534 16.3992 48.5507 15.8992 48.5507Z" fill="#6633CC"/>
<path d="M0.7 42.6059C0.2 42.6059 0 42.2096 0 41.9124V25.7626C0 25.2672 0.4 25.0691 0.7 25.0691C1.1 25.0691 1.4 25.4654 1.4 25.7626V41.9124C1.5 42.4078 1.2 42.6059 0.7 42.6059Z" fill="#6633CC"/>
<path d="M20.6008 26.4562C14.6008 26.4562 9.80078 21.6014 9.80078 15.7558C9.80078 9.91013 14.6008 5.0553 20.6008 5.0553C26.6008 5.0553 31.5008 9.91013 31.5008 15.7558C31.5008 21.6014 26.6008 26.4562 20.6008 26.4562ZM20.6008 6.54147C15.4008 6.54147 11.3008 10.7028 11.3008 15.7558C11.3008 20.8087 15.5008 24.97 20.6008 24.97C25.7008 24.97 29.9008 20.8087 29.9008 15.7558C29.9008 10.7028 25.7008 6.54147 20.6008 6.54147Z" fill="#6633CC"/>
<path d="M98.3001 14.765H95.2001C95.0001 14.765 94.9001 14.8641 94.8001 14.9632L89.2001 22.1959C88.8001 22.6913 88.6001 23.0876 88.3001 23.4839C88.1001 23.0876 87.7001 22.6913 87.4001 22.1959L81.7001 14.9632C81.6001 14.8641 81.5001 14.765 81.3001 14.765H78.2001C78.0001 14.765 77.8001 14.8641 77.8001 15.0622C77.7001 15.2604 77.7001 15.4586 77.9001 15.5576L86.5001 26.7535V36.6613C86.5001 36.9585 86.7001 37.1567 87.0001 37.1567H89.7001C90.0001 37.1567 90.2001 36.9585 90.2001 36.6613V26.5553L98.8001 15.3595C98.9001 15.1613 98.9001 14.9632 98.9001 14.8641C98.6001 14.9632 98.5001 14.765 98.3001 14.765Z" fill="white"/>
<path d="M123.3 14.765H104.5C104.2 14.765 104 14.9632 104 15.2604V17.5392C104 17.8364 104.2 18.0346 104.5 18.0346H112.1V36.6613C112.1 36.9585 112.3 37.1567 112.6 37.1567H115.3C115.6 37.1567 115.8 36.9585 115.8 36.6613V18.0346H123.4C123.7 18.0346 123.9 17.8364 123.9 17.5392V15.2604C123.7 15.0622 123.5 14.765 123.3 14.765Z" fill="white"/>
<path d="M62.3004 14.765H53.4004C53.1004 14.765 52.9004 14.9632 52.9004 15.2604V36.6613C52.9004 36.9585 53.1004 37.1567 53.4004 37.1567H56.1004C56.4004 37.1567 56.6004 36.9585 56.6004 36.6613V32.9954V31.7074V28.5369V27.9424V17.8364H62.6004C65.9004 17.8364 68.3004 20.0162 68.3004 23.1867C68.3004 26.3572 65.9004 28.5369 62.5004 28.5369H61.6004C61.6004 28.5369 61.3004 28.5369 61.2004 28.7351C61.1004 28.8341 61.1004 29.0323 61.1004 29.0323C61.1004 29.7258 61.1004 30.6175 61.1004 31.3111C61.1004 31.3111 61.1004 31.5092 61.2004 31.7074C61.3004 31.8065 61.5004 31.8065 61.6004 31.8065C61.8004 31.8065 62.1004 31.8065 62.2004 31.8065C62.7004 31.8065 67.3004 32.1037 70.1004 28.636C71.9004 26.4563 72.0004 23.8802 72.0004 23.2857C72.1004 18.2328 68.1004 14.765 62.3004 14.765Z" fill="white"/>
<path d="M134.7 23.6821V15.2604C134.7 14.9632 134.5 14.765 134.2 14.765H131.5C131.2 14.765 131 14.9632 131 15.2604V36.6613C131 36.9585 131.2 37.1567 131.5 37.1567H134.2C134.5 37.1567 134.7 36.9585 134.7 36.6613V26.8526" fill="white"/>
<path d="M149.5 14.765H146.8C146.5 14.765 146.3 14.9632 146.3 15.2604V23.6821H139C138.8 23.6821 138.6 23.8802 138.6 24.0784V26.5553C138.6 26.7535 138.8 26.9516 139 26.9516H146.3V36.8595C146.3 37.1567 146.5 37.3549 146.8 37.3549H149.5C149.8 37.3549 150 37.1567 150 36.8595V15.2604C150 15.0622 149.8 14.765 149.5 14.765Z" fill="white"/>
</svg>
