<svg width="160" height="50" viewBox="0 0 160 50" fill="none" xmlns="http://www.w3.org/2000/svg">
<path d="M21.567 40.8515C14.1438 40.8515 8.125 34.8176 8.125 27.3758C8.125 20.1352 20.2629 7.36351 20.7645 6.86069L21.3664 6.15674L21.9683 6.86069C22.4698 7.36351 34.9087 20.1352 34.9087 27.3758C35.009 34.8176 28.9902 40.8515 21.567 40.8515ZM21.4667 8.77141C20.3632 9.97819 18.1563 12.3917 15.9495 15.4087C12.0372 20.638 9.93064 24.7612 9.93064 27.3758C9.93064 33.8119 15.1469 39.0413 21.567 39.0413C27.9871 39.0413 33.2034 33.8119 33.2034 27.3758C33.2034 24.7612 31.0968 20.638 27.0842 15.4087C24.8774 12.4923 22.5701 9.97819 21.4667 8.77141Z" fill="url(#paint0_linear_4939_33186)"/>
<path d="M21.568 45.1757C11.7373 45.1757 3.8125 37.2311 3.8125 27.3758C3.8125 17.8222 17.1542 4.44715 17.7561 3.84376C18.1573 3.54207 18.6589 3.54207 19.0602 3.84376C19.3611 4.24602 19.3611 4.74884 19.0602 5.1511C18.8595 5.25167 5.61814 18.5262 5.61814 27.3758C5.61814 36.2255 12.7404 43.3656 21.568 43.3656C30.3956 43.3656 37.5178 36.2255 37.5178 27.3758C37.5178 23.7555 35.2106 18.7273 30.7968 12.8946C27.3862 8.36916 23.9755 4.94997 23.9755 4.94997C23.5743 4.64828 23.5743 4.04489 23.9755 3.64264C24.2764 3.24038 24.8783 3.24038 25.2796 3.64264C25.8815 4.24602 39.4238 17.8222 39.4238 27.3758C39.3235 37.2311 31.3987 45.1757 21.568 45.1757Z" fill="url(#paint1_linear_4939_33186)"/>
<path d="M21.5674 49.5C9.73041 49.5 0 39.7453 0 27.8787C0 22.951 2.50784 16.9171 7.32288 9.87763C10.9342 4.74885 14.4451 1.02796 14.6458 0.826834C14.9467 0.424577 15.5486 0.424577 15.9498 0.826834C16.3511 1.12853 16.3511 1.73191 15.9498 2.13417C15.9498 2.13417 12.3386 5.85505 8.82759 10.9838C4.21317 17.6211 1.80564 23.4538 1.80564 27.9792C1.80564 38.9407 10.7335 47.7904 21.5674 47.7904C32.4013 47.7904 41.3292 38.7396 41.3292 27.8787C41.3292 23.3533 38.9216 17.5205 34.3072 10.8833C30.7962 5.85505 27.185 2.13417 27.185 2.03361C26.884 1.63135 26.884 1.12853 27.185 0.72627C27.5862 0.424577 28.0878 0.424577 28.489 0.72627C28.9906 1.43022 43.1348 16.1126 43.1348 27.8787C43.1348 39.7453 33.5047 49.5 21.5674 49.5Z" fill="url(#paint2_linear_4939_33186)"/>
<path d="M52.4648 32.2029L56.7783 31.8007C57.0793 33.2086 57.5808 34.3148 58.3833 35.0187C59.1858 35.7227 60.2893 36.0244 61.5934 36.0244C62.9978 36.0244 64.1012 35.7227 64.8034 35.1193C65.5056 34.5159 65.9069 33.812 65.9069 33.0074C65.9069 32.5046 65.7062 32.0018 65.4053 31.7001C65.1043 31.2978 64.6028 30.9962 63.8003 30.795C63.2987 30.5939 62.0949 30.2922 60.2893 29.7894C57.8818 29.186 56.2768 28.482 55.2736 27.577C53.9695 26.3702 53.2674 24.8617 53.2674 23.1521C53.2674 22.0459 53.5683 20.9397 54.1702 20.0346C54.7721 19.1296 55.6749 18.325 56.8786 17.8222C58.0824 17.3194 59.4868 17.0177 61.1921 17.0177C64.0009 17.0177 66.0072 17.6211 67.4116 18.8279C68.8159 20.0346 69.5181 21.6437 69.6184 23.655L65.2047 23.8561C65.004 22.7499 64.6028 21.9454 64.0009 21.4425C63.399 20.9397 62.4962 20.638 61.1921 20.638C59.888 20.638 58.8849 20.9397 58.1827 21.4425C57.6811 21.7442 57.4805 22.247 57.4805 22.8504C57.4805 23.3533 57.6811 23.8561 58.1827 24.1578C58.7846 24.6606 60.0887 25.1634 62.2956 25.6662C64.5025 26.1691 66.0072 26.6719 67.1106 27.2753C68.1137 27.7781 68.9163 28.5826 69.5181 29.4877C70.12 30.3928 70.421 31.5995 70.421 33.0074C70.421 34.3148 70.12 35.421 69.4178 36.5272C68.7156 37.6334 67.7125 38.4379 66.4084 38.9407C65.1043 39.4436 63.4993 39.7453 61.5934 39.7453C58.7846 39.7453 56.678 39.1419 55.1733 37.8345C53.6686 36.5272 52.7658 34.717 52.4648 32.2029Z" fill="white"/>
<path d="M74.0332 39.4435V17.3193H90.284V21.0402H78.447V25.9679H89.4815V29.6888H78.447V35.7226H90.6852V39.4435H74.0332Z" fill="white"/>
<path d="M94.5957 39.4435V17.3193H103.925C106.232 17.3193 107.937 17.5205 109.041 17.9227C110.144 18.325 110.947 19.0289 111.549 20.0346C112.151 21.0402 112.552 22.247 112.552 23.5543C112.552 25.1634 112.05 26.5713 111.047 27.6775C110.044 28.7837 108.64 29.3871 106.734 29.6888C107.737 30.2921 108.439 30.8955 109.141 31.4989C109.743 32.2029 110.646 33.4096 111.649 35.1192L114.357 39.4435H109.041L105.831 34.6164C104.727 32.9068 103.925 31.8006 103.524 31.3983C103.122 30.9961 102.621 30.6944 102.22 30.4933C101.718 30.2921 101.016 30.2921 100.013 30.2921H99.1098V39.4435H94.5957ZM99.0095 26.6718H102.32C104.426 26.6718 105.73 26.5713 106.332 26.3701C106.834 26.169 107.235 25.8673 107.536 25.465C107.837 25.0628 107.937 24.4594 107.937 23.856C107.937 23.1521 107.737 22.5487 107.336 22.0459C106.934 21.543 106.433 21.3419 105.63 21.1408C105.229 21.1408 104.226 21.0402 102.42 21.0402H98.9092L99.0095 26.6718Z" fill="white"/>
<path d="M116.666 17.3193H121.08V29.2865C121.08 31.1972 121.18 32.404 121.28 33.0074C121.481 33.9125 121.882 34.6164 122.685 35.2198C123.387 35.7226 124.39 36.0243 125.594 36.0243C126.898 36.0243 127.801 35.7226 128.403 35.2198C129.005 34.717 129.406 34.1136 129.606 33.3091C129.707 32.6051 129.807 31.2978 129.807 29.5882V17.3193H134.221V28.8842C134.221 31.4989 134.121 33.4096 133.82 34.5158C133.619 35.6221 133.117 36.5271 132.516 37.3316C131.914 38.0356 131.011 38.639 129.907 39.1418C128.804 39.6446 127.4 39.8458 125.694 39.8458C123.588 39.8458 121.983 39.6446 120.879 39.1418C119.776 38.639 118.973 38.0356 118.271 37.2311C117.669 36.4266 117.268 35.6221 117.067 34.8175C116.766 33.5102 116.666 31.7 116.666 29.1859V17.3193Z" fill="white"/>
<path d="M138.834 39.4435V17.3193H145.455L149.467 32.3034L153.379 17.3193H160V39.3429H155.887V22.0459L151.574 39.4435H147.26L142.947 22.0459V39.4435H138.834Z" fill="white"/>
<defs>
<linearGradient id="paint0_linear_4939_33186" x1="21.5175" y1="40.8515" x2="21.5175" y2="6.19435" gradientUnits="userSpaceOnUse">
<stop stop-color="#05AAC5"/>
<stop offset="1" stop-color="#71E0EC"/>
</linearGradient>
<linearGradient id="paint1_linear_4939_33186" x1="21.6181" y1="45.1757" x2="21.6181" y2="3.41224" gradientUnits="userSpaceOnUse">
<stop stop-color="#05AAC5"/>
<stop offset="1" stop-color="#71E0EC"/>
</linearGradient>
<linearGradient id="paint2_linear_4939_33186" x1="21.5674" y1="49.5" x2="21.5674" y2="0.549478" gradientUnits="userSpaceOnUse">
<stop stop-color="#05AAC5"/>
<stop offset="1" stop-color="#71E0EC"/>
</linearGradient>
</defs>
</svg>
