<svg width="200" height="24" viewBox="0 0 200 24" fill="none" xmlns="http://www.w3.org/2000/svg">
<path d="M58.9724 9.6H44.3934V4.8H62.7469V0H44.3598C43.0828 0 41.8581 0.5022 40.955 1.39612C40.0522 2.29005 39.5449 3.50248 39.5449 4.76667V9.63332C39.5449 10.8975 40.0522 12.11 40.955 13.0039C41.8581 13.8978 43.0828 14.4 44.3598 14.4H58.9389V19.2H39.8916V24H58.9724C60.2495 24 61.4742 23.4978 62.377 22.6039C63.28 21.7099 63.7873 20.4975 63.7873 19.2333V14.3667C63.7873 13.1025 63.28 11.89 62.377 10.9961C61.4742 10.1022 60.2495 9.6 58.9724 9.6Z" fill="white"/>
<path d="M87.2042 0H72.5714C71.9391 -1.53231e-07 71.3133 0.123317 70.7292 0.362905C70.1454 0.602495 69.6148 0.953658 69.1678 1.39633C68.7211 1.83899 68.3668 2.3645 68.1252 2.9428C67.8835 3.5211 67.7595 4.14085 67.7598 4.76667V19.2333C67.7595 19.8591 67.8835 20.4789 68.1252 21.0572C68.3668 21.6355 68.7211 22.161 69.1678 22.6037C69.6148 23.0464 70.1454 23.3975 70.7292 23.6371C71.3133 23.8767 71.9391 24 72.5714 24H87.2042C88.4812 24 89.706 23.4978 90.6088 22.6039C91.5118 21.7099 92.0191 20.4975 92.0191 19.2333V4.76667C92.0191 3.50248 91.5118 2.29005 90.6088 1.39612C89.706 0.5022 88.4812 0 87.2042 0ZM87.1706 19.2H72.6252V4.8H87.1706V19.2Z" fill="white"/>
<path d="M138.416 1.16724e-06H124.147C122.87 1.16724e-06 121.645 0.502202 120.742 1.39612C119.839 2.29005 119.332 3.50248 119.332 4.76667V24H124.181V16.1133H138.383V24H143.231V4.76667C143.232 4.14057 143.107 3.52055 142.865 2.94202C142.624 2.36351 142.269 1.83786 141.822 1.39515C141.375 0.952435 140.844 0.601342 140.259 0.36195C139.675 0.122557 139.049 -0.000437118 138.416 1.16724e-06ZM138.383 11.3133H124.181V4.8H138.383V11.3133Z" fill="white"/>
<path d="M195.185 1.04905e-05H180.919C180.286 -0.0013045 179.658 0.121019 179.073 0.359978C178.488 0.598935 177.956 0.949838 177.508 1.3926C177.059 1.83535 176.704 2.36127 176.461 2.94025C176.219 3.5192 176.094 4.13987 176.094 4.76667V24H180.942V16.1133H195.151V24H200V4.76667C200 3.50248 199.492 2.29006 198.589 1.39613C197.686 0.502212 196.462 1.04905e-05 195.185 1.04905e-05ZM195.151 11.3133H180.952V4.8H195.151V11.3133Z" fill="white"/>
<path d="M166.939 19.2H164.999L158.05 2C157.812 1.40986 157.401 0.903838 156.87 0.547312C156.339 0.190789 155.712 0.000141233 155.07 0H150.754C149.903 0 149.087 0.334682 148.485 0.930425C147.883 1.52617 147.545 2.33416 147.545 3.17668V24H152.393V4.8H154.333L161.279 22C161.516 22.5902 161.926 23.0963 162.457 23.4529C162.987 23.8095 163.614 24.0001 164.255 24H168.572C169.423 24 170.239 23.6653 170.841 23.0696C171.443 22.4738 171.781 21.6658 171.781 20.8233V0H166.932L166.939 19.2Z" fill="white"/>
<path d="M101.165 0H96.3164V19.2333C96.3164 20.4975 96.8237 21.7099 97.7268 22.6039C98.6298 23.4978 99.8543 24 101.131 24H115.71V19.2H101.165V0Z" fill="white"/>
<path fill-rule="evenodd" clip-rule="evenodd" d="M5.13035 18.3C5.21644 18.2077 5.32045 18.1336 5.43616 18.082C5.55187 18.0305 5.67689 18.0026 5.80376 18H26.9619C27.0516 18.0012 27.1387 18.0281 27.2132 18.0772C27.2877 18.1264 27.3463 18.1959 27.3819 18.2772C27.4175 18.3586 27.4286 18.4483 27.4137 18.5357C27.399 18.6232 27.3591 18.7045 27.2988 18.77L22.8139 23.7C22.7278 23.7923 22.6238 23.8664 22.5081 23.918C22.3923 23.9695 22.2673 23.9974 22.1405 24H0.968743C0.879223 23.9988 0.79197 23.9719 0.717483 23.9228C0.642998 23.8736 0.58445 23.8041 0.548882 23.7228C0.513314 23.6414 0.50224 23.5517 0.516993 23.4643C0.531745 23.3768 0.571697 23.2955 0.632043 23.23L5.13035 18.3ZM27.319 14.2133C27.3793 14.2788 27.4192 14.3601 27.4339 14.4476C27.4488 14.535 27.4377 14.6248 27.4021 14.7061C27.3665 14.7875 27.3079 14.8569 27.2334 14.9061C27.1589 14.9552 27.0718 14.9821 26.9821 14.9833L5.81722 15C5.69038 14.9974 5.56533 14.9696 5.44962 14.918C5.33391 14.8665 5.2299 14.7923 5.14384 14.7L0.625308 9.78668C0.564965 9.7212 0.525013 9.63985 0.510258 9.55243C0.495505 9.465 0.506579 9.37523 0.542147 9.29387C0.577715 9.21252 0.636263 9.1431 0.71075 9.09393C0.785235 9.04475 0.872488 9.01793 0.96201 9.01667L22.127 9C22.2539 9.00257 22.3789 9.03045 22.4946 9.082C22.6103 9.13355 22.7143 9.2077 22.8004 9.3L27.319 14.2133ZM5.13035 0.3C5.21644 0.207705 5.32045 0.133561 5.43616 0.0820115C5.55187 0.0304623 5.67689 0.00256785 5.80376 0L26.9756 0.0166667C27.0649 0.0179149 27.1523 0.0447418 27.2268 0.0939203C27.3013 0.143099 27.3596 0.212535 27.3953 0.293875C27.4309 0.375217 27.442 0.465 27.4273 0.552423C27.4124 0.639848 27.3725 0.72119 27.3122 0.786668L22.8139 5.7C22.7278 5.7923 22.6238 5.86645 22.5081 5.918C22.3923 5.96955 22.2673 5.99743 22.1405 6H0.968743C0.879223 5.99875 0.79197 5.97192 0.717483 5.92275C0.642998 5.87358 0.58445 5.80412 0.548882 5.7228C0.513314 5.64145 0.50224 5.55168 0.516993 5.46425C0.531745 5.37682 0.571697 5.29548 0.632043 5.23L5.13035 0.3Z" fill="url(#paint0_linear_5628_4254)"/>
<defs>
<linearGradient id="paint0_linear_5628_4254" x1="1.32228" y1="24.5233" x2="26.3678" y2="-0.775049" gradientUnits="userSpaceOnUse">
<stop stop-color="#9945FF"/>
<stop offset="0.14" stop-color="#8A53F4"/>
<stop offset="0.42" stop-color="#6377D6"/>
<stop offset="0.79" stop-color="#24B0A7"/>
<stop offset="0.99" stop-color="#00D18C"/>
<stop offset="1" stop-color="#00D18C"/>
</linearGradient>
</defs>
</svg>
