<svg width="230" height="40" viewBox="0 0 230 40" fill="none" xmlns="http://www.w3.org/2000/svg">
<path d="M74.6286 12.9499L69.3681 27.7909C69.344 27.8627 69.2966 27.9245 69.2332 27.9664C69.1698 28.0082 69.0943 28.0276 69.0185 28.0216H68.6194C68.5437 28.0244 68.469 28.0037 68.4056 27.9623C68.3422 27.921 68.2931 27.8611 68.2652 27.7909L64.3212 17.381L60.3835 27.7909C60.3574 27.8614 60.3095 27.9219 60.2466 27.9634C60.1837 28.0049 60.1092 28.0253 60.0339 28.0216H59.6281C59.5527 28.0259 59.478 28.0057 59.415 27.9641C59.3521 27.9225 59.3043 27.8617 59.2788 27.7909L54.018 12.9559C53.9369 12.7258 54.0244 12.5824 54.2493 12.5824H55.8785C55.955 12.575 56.0317 12.5938 56.0961 12.6358C56.1605 12.6777 56.2086 12.7403 56.2326 12.8131L59.9829 24.0499L63.7956 13.7591C63.8229 13.6884 63.8718 13.6282 63.9354 13.5869C63.999 13.5456 64.074 13.5254 64.1498 13.529H64.4929C64.5682 13.5253 64.6426 13.5456 64.7055 13.587C64.7683 13.6283 64.8163 13.6886 64.8425 13.7591L68.7692 24.0509L72.432 12.8142C72.456 12.7413 72.5042 12.6788 72.5686 12.6368C72.6329 12.5949 72.7097 12.5761 72.7862 12.5834H74.3899C74.6212 12.5834 74.7086 12.7269 74.6272 12.9509" fill="white"/>
<path d="M97.5258 20.1785C97.5356 21.2018 97.342 22.2169 96.9563 23.1651C96.5706 24.1133 96.0003 24.9759 95.2785 25.7029C94.5567 26.43 93.6977 27.0071 92.751 27.401C91.8043 27.7949 90.7888 27.9977 89.7631 27.9977C88.7374 27.9977 87.7218 27.7949 86.7752 27.401C85.8285 27.0071 84.9694 26.43 84.2476 25.7029C83.5258 24.9759 82.9555 24.1133 82.5698 23.1651C82.1841 22.2169 81.9906 21.2018 82.0004 20.1785C81.9906 19.1552 82.1841 18.1401 82.5698 17.1919C82.9555 16.2436 83.5258 15.3811 84.2476 14.654C84.9694 13.9269 85.8285 13.3498 86.7752 12.9559C87.7218 12.562 88.7374 12.3593 89.7631 12.3593C90.7888 12.3593 91.8043 12.562 92.751 12.9559C93.6977 13.3498 94.5567 13.9269 95.2785 14.654C96.0003 15.3811 96.5706 16.2436 96.9563 17.1919C97.342 18.1401 97.5356 19.1552 97.5258 20.1785ZM95.3731 20.1785C95.3731 16.5802 93.0207 14.1007 89.7631 14.1007C86.5054 14.1007 84.153 16.5788 84.153 20.1785C84.153 23.7781 86.5054 26.2562 89.7631 26.2562C93.0207 26.2562 95.3731 23.7781 95.3731 20.1785Z" fill="white"/>
<path d="M118.084 27.1575C118.134 27.2147 118.165 27.2857 118.174 27.3611C118.182 27.4365 118.168 27.5127 118.132 27.5795C118.096 27.6464 118.041 27.7008 117.973 27.7355C117.905 27.7702 117.829 27.7836 117.753 27.7738H116.287C116.239 27.7723 116.192 27.759 116.151 27.7352C116.109 27.7113 116.075 27.6776 116.049 27.637L112.368 22.0957H108.412V27.4621C108.41 27.5442 108.377 27.6223 108.318 27.6804C108.26 27.7384 108.182 27.7717 108.1 27.7734H106.671C106.589 27.7716 106.511 27.7382 106.453 27.6802C106.394 27.6222 106.361 27.5441 106.359 27.4621V12.8936C106.361 12.8116 106.394 12.7335 106.453 12.6755C106.511 12.6175 106.589 12.5841 106.671 12.5823H112.306C116.25 12.5823 118.197 14.6498 118.197 17.3392C118.197 19.4749 116.974 21.2183 114.496 21.8469L118.084 27.1575ZM111.9 20.3522C115.001 20.3522 116.044 19.0696 116.044 17.3388C116.044 15.6141 115.001 14.3254 111.9 14.3254H108.412V20.3522H111.9Z" fill="white"/>
<path d="M142.315 12.3346H142.783C142.824 12.3321 142.866 12.3385 142.905 12.3532C142.944 12.368 142.979 12.3909 143.009 12.4203C143.038 12.4497 143.061 12.485 143.076 12.5239C143.091 12.5628 143.097 12.6044 143.095 12.6459V27.4625C143.097 27.504 143.091 27.5456 143.076 27.5845C143.061 27.6234 143.038 27.6587 143.009 27.6881C142.979 27.7175 142.944 27.7404 142.905 27.7551C142.866 27.7699 142.824 27.7763 142.783 27.7738H141.354C141.312 27.7763 141.271 27.7699 141.232 27.7551C141.193 27.7404 141.157 27.7175 141.128 27.6881C141.098 27.6587 141.075 27.6234 141.061 27.5845C141.046 27.5456 141.04 27.504 141.042 27.4625V16.947L135.269 25.2833C135.25 25.3246 135.22 25.3595 135.182 25.3841C135.144 25.4086 135.099 25.4216 135.054 25.4216C135.008 25.4216 134.964 25.4086 134.926 25.3841C134.887 25.3595 134.857 25.3246 134.838 25.2833L129.065 16.947V27.4625C129.068 27.504 129.061 27.5456 129.047 27.5845C129.032 27.6234 129.009 27.6587 128.979 27.6881C128.95 27.7175 128.915 27.7404 128.876 27.7551C128.837 27.7699 128.795 27.7763 128.753 27.7738H127.324C127.283 27.7763 127.241 27.7699 127.202 27.7551C127.163 27.7404 127.128 27.7175 127.098 27.6881C127.069 27.6587 127.046 27.6234 127.031 27.5845C127.016 27.5456 127.01 27.504 127.012 27.4625V12.6448C127.01 12.6033 127.016 12.5617 127.031 12.5228C127.046 12.484 127.069 12.4486 127.098 12.4192C127.128 12.3898 127.163 12.367 127.202 12.3522C127.241 12.3374 127.283 12.3311 127.324 12.3335H127.785C127.862 12.3345 127.937 12.3543 128.005 12.3913C128.072 12.4282 128.13 12.4812 128.172 12.5455L135.049 22.1272L141.936 12.5466C141.976 12.4821 142.032 12.4287 142.099 12.3917C142.165 12.3546 142.24 12.3349 142.316 12.3346" fill="white"/>
<path d="M166.253 12.8936V27.4621C166.251 27.5442 166.218 27.6223 166.16 27.6804C166.101 27.7384 166.023 27.7717 165.941 27.7734H164.512C164.43 27.7717 164.352 27.7384 164.293 27.6804C164.235 27.6223 164.202 27.5442 164.2 27.4621V20.8261H154.721V27.4621C154.719 27.5442 154.686 27.6223 154.628 27.6804C154.57 27.7384 154.491 27.7717 154.409 27.7734H152.98C152.898 27.7717 152.819 27.7384 152.761 27.6804C152.703 27.6223 152.67 27.5442 152.668 27.4621V12.8936C152.67 12.8116 152.703 12.7334 152.761 12.6754C152.819 12.6173 152.898 12.584 152.98 12.5823H154.409C154.491 12.584 154.57 12.6173 154.628 12.6754C154.686 12.7334 154.719 12.8116 154.721 12.8936V19.0823H164.2V12.8936C164.201 12.8116 164.235 12.7334 164.293 12.6754C164.351 12.6173 164.43 12.584 164.512 12.5823H165.941C166.023 12.584 166.101 12.6173 166.159 12.6754C166.217 12.7334 166.251 12.8116 166.253 12.8936" fill="white"/>
<path d="M190.61 20.1785C190.62 21.2018 190.426 22.2169 190.04 23.1651C189.655 24.1133 189.084 24.9759 188.363 25.7029C187.641 26.43 186.782 27.0071 185.835 27.401C184.888 27.7949 183.873 27.9977 182.847 27.9977C181.821 27.9977 180.806 27.7949 179.859 27.401C178.912 27.0071 178.053 26.43 177.332 25.7029C176.61 24.9759 176.04 24.1133 175.654 23.1651C175.268 22.2169 175.075 21.2018 175.084 20.1785C175.075 19.1552 175.268 18.1401 175.654 17.1919C176.04 16.2436 176.61 15.3811 177.332 14.654C178.053 13.9269 178.912 13.3498 179.859 12.9559C180.806 12.562 181.821 12.3593 182.847 12.3593C183.873 12.3593 184.888 12.562 185.835 12.9559C186.782 13.3498 187.641 13.9269 188.363 14.654C189.084 15.3811 189.655 16.2436 190.04 17.1919C190.426 18.1401 190.62 19.1552 190.61 20.1785ZM188.457 20.1785C188.457 16.5802 186.105 14.1007 182.847 14.1007C179.589 14.1007 177.237 16.5788 177.237 20.1785C177.237 23.7781 179.589 26.2562 182.847 26.2562C186.105 26.2562 188.457 23.7781 188.457 20.1785Z" fill="white"/>
<path d="M210.218 26.3416V27.4621C210.221 27.5037 210.215 27.5452 210.2 27.5841C210.185 27.623 210.162 27.6583 210.133 27.6877C210.103 27.7172 210.068 27.74 210.029 27.7548C209.99 27.7696 209.948 27.7759 209.906 27.7734H199.753C199.671 27.7717 199.593 27.7384 199.535 27.6804C199.477 27.6223 199.443 27.5442 199.441 27.4621V12.8936C199.443 12.8116 199.477 12.7334 199.535 12.6754C199.593 12.6173 199.671 12.584 199.753 12.5823H201.183C201.265 12.5841 201.343 12.6175 201.401 12.6755C201.459 12.7335 201.492 12.8116 201.494 12.8936V26.0303H209.906C209.948 26.0279 209.989 26.0342 210.028 26.049C210.067 26.0638 210.103 26.0866 210.132 26.116C210.162 26.1454 210.185 26.1808 210.199 26.2196C210.214 26.2585 210.221 26.3001 210.218 26.3416" fill="white"/>
<path d="M230 26.3417V27.4622C230.003 27.5037 229.996 27.5453 229.982 27.5842C229.967 27.623 229.944 27.6584 229.914 27.6878C229.885 27.7172 229.849 27.74 229.81 27.7548C229.771 27.7696 229.73 27.7759 229.688 27.7735H218.724C218.642 27.7718 218.564 27.7384 218.505 27.6804C218.447 27.6224 218.414 27.5442 218.412 27.4622V12.8936C218.414 12.8116 218.447 12.7334 218.505 12.6754C218.564 12.6174 218.642 12.584 218.724 12.5823H229.439C229.48 12.5798 229.522 12.5862 229.561 12.601C229.6 12.6157 229.636 12.6386 229.665 12.668C229.694 12.6974 229.717 12.7327 229.732 12.7716C229.747 12.8105 229.753 12.8521 229.751 12.8936V14.0141C229.753 14.0556 229.747 14.0972 229.732 14.1361C229.717 14.175 229.694 14.2103 229.665 14.2397C229.636 14.2691 229.6 14.292 229.561 14.3068C229.522 14.3215 229.48 14.3279 229.439 14.3254H220.465V19.0823H228.44C228.482 19.0796 228.523 19.0856 228.561 19.0999C228.6 19.1142 228.635 19.1365 228.665 19.1653C228.694 19.1941 228.717 19.2287 228.732 19.2669C228.747 19.3052 228.754 19.3462 228.752 19.3873V20.5145C228.755 20.5559 228.748 20.5975 228.733 20.6363C228.719 20.6752 228.696 20.7104 228.666 20.7398C228.637 20.7692 228.602 20.792 228.563 20.8068C228.524 20.8215 228.482 20.8279 228.44 20.8254H220.465V26.0304H229.688C229.73 26.0279 229.771 26.0343 229.81 26.049C229.849 26.0638 229.885 26.0866 229.914 26.1161C229.944 26.1455 229.967 26.1808 229.982 26.2197C229.996 26.2586 230.003 26.3001 230 26.3417Z" fill="white"/>
<path d="M20.0461 40C16.0813 40 12.2056 38.827 8.90907 36.6294C5.61252 34.4318 3.04316 31.3082 1.52592 27.6537C0.00868559 23.9992 -0.388293 19.9778 0.385188 16.0982C1.15867 12.2186 3.06787 8.65492 5.87136 5.85787C8.67485 3.06082 12.2467 1.15601 16.1353 0.384303C20.0238 -0.387401 24.0544 0.00866563 27.7174 1.52242C31.3803 3.03617 34.5111 5.59962 36.7138 8.8886C38.9164 12.1776 40.0921 16.0444 40.0921 20C40.0858 25.3024 37.9718 30.3858 34.2138 34.1352C30.4558 37.8846 25.3607 39.9937 20.0461 40ZM20.0461 0.885875C16.2571 0.886014 12.5533 2.0071 9.40303 4.10736C6.25271 6.20763 3.79736 9.19274 2.34747 12.6852C0.897576 16.1777 0.518254 20.0207 1.25747 23.7283C1.99669 27.4359 3.82124 30.8415 6.50042 33.5145C9.17959 36.1875 12.5931 38.0079 16.3092 38.7454C20.0253 39.4829 23.8771 39.1045 27.3777 37.6579C30.8782 36.2114 33.8702 33.7617 35.9753 30.6186C38.0804 27.4755 39.2041 23.7802 39.2042 20C39.1982 14.9326 37.1778 10.0745 33.5862 6.49138C29.9946 2.90831 25.1252 0.892899 20.0461 0.887288" fill="white"/>
<path d="M21.6882 38.0456C18.1257 38.0456 14.6432 36.9916 11.6811 35.0169C8.71896 33.0423 6.41026 30.2356 5.04694 26.9518C3.68361 23.6681 3.32688 20.0547 4.02187 16.5687C4.71685 13.0827 6.43233 9.88055 8.95138 7.36724C11.4704 4.85393 14.6799 3.14233 18.1739 2.44887C21.668 1.75542 25.2897 2.11125 28.581 3.47138C31.8723 4.83151 34.6855 7.13485 36.6648 10.0901C38.6441 13.0454 39.7005 16.5199 39.7006 20.0742C39.6954 24.8388 37.796 29.4068 34.4191 32.776C31.0423 36.1451 26.4638 38.0402 21.6882 38.0456ZM21.6882 2.87313C18.2782 2.87327 14.9448 3.88228 12.1095 5.77255C9.27427 7.66282 7.06451 10.3495 5.75968 13.4927C4.45485 16.636 4.11355 20.0947 4.77895 23.4315C5.44435 26.7683 7.08656 29.8333 9.49791 32.2389C11.9093 34.6445 14.9814 36.2827 18.326 36.9463C21.6705 37.6099 25.1372 37.2691 28.2875 35.967C31.4379 34.6649 34.1306 32.46 36.025 29.6311C37.9194 26.8022 38.9304 23.4764 38.9303 20.0742C38.925 15.5136 37.1067 11.1412 33.8743 7.91649C30.6419 4.69176 26.2593 2.878 21.6882 2.87313Z" fill="white"/>
<path d="M23.3293 36.0887C20.1692 36.0887 17.0801 35.1539 14.4526 33.4023C11.8251 31.6508 9.77717 29.1612 8.56784 26.2484C7.35851 23.3356 7.04207 20.1305 7.65855 17.0383C8.27503 13.946 9.79673 11.1057 12.0312 8.87631C14.2657 6.64695 17.1126 5.12874 20.212 4.51368C23.3113 3.89862 26.5239 4.21433 29.4433 5.42088C32.3628 6.62743 34.8582 8.67064 36.6137 11.2921C38.3693 13.9136 39.3063 16.9956 39.3063 20.1484C39.3016 24.3746 37.6168 28.4263 34.6215 31.4147C31.6263 34.4031 27.5652 36.084 23.3293 36.0887ZM23.3293 4.85793C20.2982 4.85786 17.3352 5.75455 14.8149 7.43459C12.2946 9.11463 10.3303 11.5026 9.1703 14.2964C8.0103 17.0903 7.70674 20.1646 8.298 23.1306C8.88926 26.0966 10.3488 28.8211 12.492 30.9595C14.6353 33.0979 17.3659 34.5542 20.3387 35.1443C23.3116 35.7343 26.393 35.4316 29.1933 34.2744C31.9937 33.1172 34.3872 31.1575 36.0713 28.6431C37.7553 26.1287 38.6542 23.1725 38.6542 20.1484C38.6498 16.0946 37.0338 12.2081 34.1608 9.34151C31.2878 6.47497 27.3924 4.86252 23.3293 4.85793Z" fill="white"/>
<path d="M24.9714 34.1332C22.2137 34.1334 19.5178 33.3177 17.2248 31.7893C14.9317 30.2608 13.1444 28.0883 12.089 25.5464C11.0335 23.0045 10.7573 20.2074 11.2952 17.5089C11.8331 14.8103 13.161 12.3315 15.1109 10.386C17.0609 8.44039 19.5453 7.11542 22.25 6.57862C24.9548 6.04181 27.7583 6.31728 30.3061 7.37019C32.8539 8.4231 35.0315 10.2062 36.5636 12.4939C38.0957 14.7816 38.9134 17.4712 38.9133 20.2226C38.909 23.9105 37.4388 27.4461 34.8251 30.0539C32.2115 32.6617 28.6678 34.1287 24.9714 34.1332ZM24.9714 6.84344C22.3193 6.8433 19.7267 7.6278 17.5215 9.09772C15.3163 10.5676 13.5975 12.657 12.5824 15.1015C11.5674 17.5461 11.3017 20.236 11.819 22.8312C12.3362 25.4264 13.6132 27.8103 15.4884 29.6814C17.3636 31.5525 19.7529 32.8268 22.354 33.3431C24.9551 33.8595 27.6513 33.5947 30.1015 32.5822C32.5518 31.5698 34.6461 29.8551 36.1197 27.6551C37.5932 25.4551 38.3798 22.8686 38.3799 20.2226C38.3764 16.6756 36.9626 13.2749 34.4488 10.7667C31.935 8.25844 28.5266 6.84763 24.9714 6.84379" fill="white"/>
<path d="M26.6125 32.177C24.2572 32.1772 21.9547 31.4806 19.9962 30.1752C18.0378 28.8698 16.5113 27.0143 15.6098 24.8433C14.7084 22.6723 14.4724 20.2834 14.9319 17.9786C15.3913 15.6739 16.5254 13.5568 18.1909 11.8951C19.8563 10.2335 21.9782 9.10188 24.2883 8.64345C26.5983 8.18501 28.9928 8.42033 31.1688 9.31965C33.3448 10.219 35.2046 11.7419 36.5131 13.6958C37.8215 15.6497 38.5198 17.9469 38.5197 20.2968C38.5159 23.4464 37.2602 26.466 35.028 28.6931C32.7958 30.9203 29.7693 32.1732 26.6125 32.177ZM26.6125 8.8293C24.3393 8.82909 22.1172 9.50141 20.227 10.7612C18.3368 12.0211 16.8635 13.8118 15.9935 15.907C15.1234 18.0023 14.8956 20.3078 15.3389 22.5322C15.7822 24.7566 16.8766 26.7999 18.4839 28.4037C20.0911 30.0075 22.1389 31.0998 24.3684 31.5424C26.5978 31.985 28.9087 31.7581 31.0089 30.8903C33.1091 30.0226 34.9042 28.5529 36.1672 26.6673C37.4303 24.7817 38.1045 22.5647 38.1046 20.2968C38.1013 17.2568 36.8895 14.3422 34.7351 12.1924C32.5807 10.0427 29.6595 8.8333 26.6125 8.82965" fill="white"/>
<path d="M28.2539 30.2201C26.301 30.2204 24.3918 29.6428 22.7679 28.5605C21.144 27.4782 19.8782 25.9397 19.1308 24.1396C18.3833 22.3395 18.1876 20.3587 18.5686 18.4477C18.9495 16.5367 19.8899 14.7813 21.2708 13.4036C22.6517 12.0258 24.4112 11.0876 26.3266 10.7075C28.242 10.3275 30.2274 10.5227 32.0316 11.2684C33.8358 12.0142 35.3778 13.277 36.4626 14.8972C37.5475 16.5174 38.1263 18.4222 38.126 20.3706C38.1227 22.9818 37.0815 25.4851 35.2308 27.3315C33.3802 29.1779 30.8711 30.2167 28.2539 30.2201ZM28.2539 10.8144C26.3597 10.8141 24.508 11.3743 22.9329 12.424C21.3577 13.4737 20.13 14.9659 19.4049 16.7117C18.6798 18.4576 18.4898 20.3788 18.8591 22.2324C19.2284 24.086 20.1403 25.7887 21.4796 27.1252C22.8188 28.4617 24.5252 29.3719 26.3829 29.7408C28.2407 30.1098 30.1663 29.9208 31.9164 29.1978C33.6665 28.4748 35.1624 27.2502 36.215 25.679C37.2675 24.1078 37.8294 22.2604 37.8296 20.3706C37.8272 17.8373 36.8176 15.4085 35.0224 13.6169C33.2272 11.8254 30.793 10.8175 28.2539 10.8144Z" fill="white"/>
</svg>
