<svg fill="none" height="20" viewBox="0 0 20 20" width="20" xmlns="http://www.w3.org/2000/svg" xmlns:xlink="http://www.w3.org/1999/xlink"><clipPath id="a"><path d="m0 0h20v20h-20z"/></clipPath><g clip-path="url(#a)" fill="#8f929e"><path d="m7.50004.832031h-5c-.92047 0-1.666666.746189-1.666666 1.666669v5c0 .92047.746196 1.66666 1.666666 1.66666h5c.92048 0 1.66667-.74619 1.66667-1.66666v-5c0-.92048-.74619-1.666669-1.66667-1.666669z"/><path d="m19.5234 3.84699-3.3725-3.371665c-.3057-.304412-.7195-.475325-1.1509-.475325s-.8452.170913-1.1508.475325l-3.3725 3.371665c-.3045.30593-.4755.72002-.4755 1.15167s.171.84573.4755 1.15166l3.3725 3.37251c.3056.30441.7194.47532 1.1508.47532s.8452-.17091 1.1509-.47532l3.3725-3.37167c.3047-.30597.4758-.72023.4758-1.15209 0-.43185-.1711-.84611-.4758-1.15208z"/><path d="m17.5 10.832h-5c-.9204 0-1.6666.7462-1.6666 1.6667v5c0 .9205.7462 1.6667 1.6666 1.6667h5c.9205 0 1.6667-.7462 1.6667-1.6667v-5c0-.9205-.7462-1.6667-1.6667-1.6667z"/><path d="m7.50004 10.832h-5c-.92047 0-1.666666.7462-1.666666 1.6667v5c0 .9205.746196 1.6667 1.666666 1.6667h5c.92048 0 1.66667-.7462 1.66667-1.6667v-5c0-.9205-.74619-1.6667-1.66667-1.6667z"/></g></svg>