<svg fill="none" height="20" viewBox="0 0 20 20" width="20" xmlns="http://www.w3.org/2000/svg"><path d="m16.6667.833252h-13.33337c-.66304 0-1.29893.263388-1.76777.732238-.46884.46884-.732232 1.10472-.732232 1.76776v13.33335c0 .663.263392 1.2989.732232 1.7678.46884.4688 1.10473.7322 1.76777.7322h13.33337c.663 0 1.2989-.2634 1.7677-.7322.4689-.4689.7323-1.1048.7323-1.7678v-13.33335c0-.66304-.2634-1.29892-.7323-1.76776-.4688-.46885-1.1047-.732238-1.7677-.732238zm-8.75004 4.166668c.24723 0 .4889.07331.69446.21066.20557.13735.36578.33258.46039.56098.09461.22841.11937.47975.07113.72222-.04823.24248-.16728.46521-.34209.64002-.17482.17482-.39755.29387-.64002.3421-.24248.04823-.49381.02348-.72222-.07113s-.42363-.25483-.56099-.46039c-.13735-.20556-.21066-.44723-.21066-.69446 0-.33152.1317-.64946.36612-.88389.23442-.23442.55236-.36611.88388-.36611zm7.85414 8.96918c-.0373.0603-.0894.1102-.1514.1447-.062.0346-.1318.0528-.2027.0528h-10.83337c-.07438 0-.1474-.0199-.21148-.0577-.06409-.0377-.1169-.0919-.15296-.157-.03605-.065-.05404-.1386-.05209-.2129.00196-.0744.02378-.1468.0632-.2099l2.08333-3.3333c.03492-.0559.08258-.1026.13907-.1365.05648-.0339.12019-.0538.1859-.0583.0657-.00449.13153.0067.19209.0326.06055.0259.11411.0657.15627.1163l1.74584 2.095 3.4342-4.57831c.0432-.05627.0997-.10095.1644-.13004.0647-.02908.1356-.04167.2064-.03663.0704.00666.1379.03111.1962.07106.0583.03994.1055.09406.1371.15727l2.9167 5.83335c.0324.0636.0478.1346.0449.2059-.0029.0714-.0241.1408-.0616.2016z" fill="#99a4b4"/></svg>