<svg width="600" height="600" viewBox="0 0 600 600" fill="none" xmlns="http://www.w3.org/2000/svg">
<g clip-path="url(#clip0_19137_152327)">
<mask id="mask0_19137_152327" style="mask-type:luminance" maskUnits="userSpaceOnUse" x="260" y="260" width="80" height="80">
<path d="M340 260H260V340H340V260Z" fill="white"/>
</mask>
<g mask="url(#mask0_19137_152327)">
<path d="M290 263.334H270C266.318 263.334 263.333 266.319 263.333 270.001V290.001C263.333 293.683 266.318 296.667 270 296.667H290C293.682 296.667 296.667 293.683 296.667 290.001V270.001C296.667 266.319 293.682 263.334 290 263.334Z" fill="#C061F7"/>
<path d="M338.094 275.394L324.604 261.907C323.381 260.69 321.726 260.006 320 260.006C318.274 260.006 316.619 260.69 315.397 261.907L301.907 275.394C300.689 276.618 300.005 278.274 300.005 280C300.005 281.727 300.689 283.383 301.907 284.607L315.397 298.097C316.619 299.315 318.274 299.998 320 299.998C321.726 299.998 323.381 299.315 324.604 298.097L338.094 284.61C339.312 283.387 339.997 281.73 339.997 280.002C339.997 278.275 339.312 276.618 338.094 275.394Z" fill="#28DBD1"/>
<path d="M330 303.334H310C306.318 303.334 303.333 306.319 303.333 310.001V330.001C303.333 333.683 306.318 336.668 310 336.668H330C333.682 336.668 336.667 333.683 336.667 330.001V310.001C336.667 306.319 333.682 303.334 330 303.334Z" fill="#6360FF"/>
<path d="M290 303.334H270C266.318 303.334 263.333 306.319 263.333 310.001V330.001C263.333 333.683 266.318 336.668 270 336.668H290C293.682 336.668 296.667 333.683 296.667 330.001V310.001C296.667 306.319 293.682 303.334 290 303.334Z" fill="#FE6F5C"/>
</g>
</g>
<defs>
<clipPath id="clip0_19137_152327">
<rect width="80" height="80" fill="white" transform="translate(260 260)"/>
</clipPath>
</defs>
</svg>
