<svg width="2000" height="2000" viewBox="0 0 2000 2000" fill="none" xmlns="http://www.w3.org/2000/svg">
<g clip-path="url(#clip0_19137_152339)">
<mask id="mask0_19137_152339" style="mask-type:luminance" maskUnits="userSpaceOnUse" x="920" y="920" width="160" height="160">
<path d="M1080 920H920V1080H1080V920Z" fill="white"/>
</mask>
<g mask="url(#mask0_19137_152339)">
<path d="M980 926.666H940C932.637 926.666 926.667 932.636 926.667 939.999V979.999C926.667 987.363 932.637 993.333 940 993.333H980C987.364 993.333 993.334 987.363 993.334 979.999V939.999C993.334 932.636 987.364 926.666 980 926.666Z" fill="#C061F7"/>
<path d="M1076.19 950.786L1049.21 923.812C1046.76 921.377 1043.45 920.01 1040 920.01C1036.55 920.01 1033.24 921.377 1030.79 923.812L1003.81 950.786C1001.38 953.233 1000.01 956.546 1000.01 959.999C1000.01 963.452 1001.38 966.765 1003.81 969.212L1030.79 996.192C1033.24 998.628 1036.55 999.995 1040 999.995C1043.45 999.995 1046.76 998.628 1049.21 996.192L1076.19 969.219C1078.62 966.771 1079.99 963.457 1079.99 960.002C1079.99 956.548 1078.62 953.233 1076.19 950.786Z" fill="#28DBD1"/>
<path d="M1060 1006.67H1020C1012.64 1006.67 1006.67 1012.64 1006.67 1020V1060C1006.67 1067.36 1012.64 1073.33 1020 1073.33H1060C1067.36 1073.33 1073.33 1067.36 1073.33 1060V1020C1073.33 1012.64 1067.36 1006.67 1060 1006.67Z" fill="#6360FF"/>
<path d="M980 1006.67H940C932.637 1006.67 926.667 1012.64 926.667 1020V1060C926.667 1067.36 932.637 1073.33 940 1073.33H980C987.364 1073.33 993.334 1067.36 993.334 1060V1020C993.334 1012.64 987.364 1006.67 980 1006.67Z" fill="#FE6F5C"/>
</g>
</g>
<defs>
<clipPath id="clip0_19137_152339">
<rect width="160" height="160" fill="white" transform="translate(920 920)"/>
</clipPath>
</defs>
</svg>
