<svg width="995" height="995" viewBox="0 0 995 995" fill="none" xmlns="http://www.w3.org/2000/svg">
<g clip-path="url(#clip0_19137_152328)">
<mask id="mask0_19137_152328" style="mask-type:luminance" maskUnits="userSpaceOnUse" x="418" y="418" width="160" height="160">
<path d="M578 418H418V578H578V418Z" fill="white"/>
</mask>
<g mask="url(#mask0_19137_152328)">
<path d="M478 424.666H438C430.636 424.666 424.667 430.636 424.667 437.999V477.999C424.667 485.363 430.636 491.333 438 491.333H478C485.364 491.333 491.333 485.363 491.333 477.999V437.999C491.333 430.636 485.364 424.666 478 424.666Z" fill="#C061F7"/>
<path d="M574.187 448.786L547.207 421.812C544.762 419.377 541.451 418.01 538 418.01C534.549 418.01 531.239 419.377 528.794 421.812L501.814 448.786C499.378 451.233 498.01 454.546 498.01 457.999C498.01 461.452 499.378 464.765 501.814 467.212L528.794 494.192C531.239 496.628 534.549 497.995 538 497.995C541.451 497.995 544.762 496.628 547.207 494.192L574.187 467.219C576.625 464.771 577.994 461.457 577.994 458.002C577.994 454.548 576.625 451.233 574.187 448.786Z" fill="#28DBD1"/>
<path d="M558 504.666H518C510.636 504.666 504.667 510.636 504.667 518V558C504.667 565.364 510.636 571.333 518 571.333H558C565.364 571.333 571.334 565.364 571.334 558V518C571.334 510.636 565.364 504.666 558 504.666Z" fill="#6360FF"/>
<path d="M478 504.666H438C430.636 504.666 424.667 510.636 424.667 518V558C424.667 565.364 430.636 571.333 438 571.333H478C485.364 571.333 491.333 565.364 491.333 558V518C491.333 510.636 485.364 504.666 478 504.666Z" fill="#FE6F5C"/>
</g>
</g>
<defs>
<clipPath id="clip0_19137_152328">
<rect width="160" height="160" fill="white" transform="translate(418 418)"/>
</clipPath>
</defs>
</svg>
