<svg width="65" height="64" viewBox="0 0 65 64" fill="none" xmlns="http://www.w3.org/2000/svg">
<rect width="64" height="64" transform="translate(0.25)" fill="#2563EB"/>
<path d="M33.5338 12.6061H23.73L16.3381 28.3963C14.335 32.6754 13.3334 34.8149 13.6369 36.4493C13.9038 37.8869 14.8565 39.0557 16.3583 39.7883C18.0656 40.621 20.8109 40.621 26.3016 40.621H33.4911L36.5909 33.9993C36.7578 33.6427 36.8413 33.4644 36.816 33.3282C36.7937 33.2084 36.7143 33.111 36.5892 33.05C36.4469 32.9806 36.2182 32.9806 35.7606 32.9806H29.2247C27.3945 32.9806 26.4794 32.9806 25.9102 32.703C25.4096 32.4588 25.0921 32.0692 25.0031 31.59C24.902 31.0452 25.2358 30.332 25.9036 28.9057L33.5338 12.6061Z" fill="white"/>
<path d="M30.6392 51.3939H40.443L47.8348 35.6037C49.8379 31.3247 50.8395 29.1852 50.536 27.5508C50.2691 26.1132 49.3164 24.9443 47.8146 24.2118C46.1074 23.379 43.362 23.379 37.8714 23.379H30.6819L27.5821 30.0007C27.4151 30.3573 27.3317 30.5356 27.357 30.6718C27.3792 30.7916 27.4586 30.889 27.5838 30.9501C27.726 31.0195 27.9548 31.0195 28.4124 31.0195H34.9483C36.7785 31.0195 37.6936 31.0195 38.2627 31.297C38.7633 31.5412 39.0808 31.9308 39.1698 32.41C39.271 32.9548 38.9371 33.668 38.2694 35.0944L30.6392 51.3939Z" fill="white"/>
</svg>
