<svg width="64" height="64" viewBox="0 0 64 64" fill="none" xmlns="http://www.w3.org/2000/svg">
<g clip-path="url(#clip0_21866_186796)">
<rect width="64" height="64" fill="#E42575"/>
<rect width="64" height="64" transform="translate(0.5)" fill="#E42575"/>
<path d="M42.6306 25.343L45.235 28.383C45.5331 28.7245 45.7975 29.0054 45.9044 29.1651C46.6833 29.9341 47.12 30.9734 47.1194 32.0564C47.0462 33.3341 46.2081 34.2042 45.4319 35.1349L43.6094 37.2607L42.6587 38.3622C42.6247 38.4001 42.6027 38.4471 42.5955 38.4972C42.5883 38.5473 42.5963 38.5983 42.6185 38.644C42.6406 38.6897 42.6759 38.728 42.7201 38.7543C42.7642 38.7805 42.8152 38.7935 42.8669 38.7917H52.3675C53.8187 38.7917 55.6469 40.0033 55.54 41.8428C55.537 42.6788 55.1965 43.4798 54.5927 44.0709C53.9889 44.6621 53.1708 44.9955 52.3169 44.9984H37.4387C36.46 44.9984 33.8275 45.103 33.0906 42.8726C32.9339 42.4065 32.9125 41.907 33.0287 41.4297C33.2429 40.7239 33.5818 40.0603 34.03 39.4691C34.7781 38.3677 35.5881 37.2662 36.3869 36.1978C37.4162 34.799 38.4738 33.4442 39.5144 32.0178C39.5513 31.9714 39.5714 31.9142 39.5714 31.8554C39.5714 31.7965 39.5513 31.7393 39.5144 31.6929L35.7344 27.2871C35.7097 27.2552 35.6778 27.2292 35.6412 27.2114C35.6047 27.1936 35.5643 27.1843 35.5234 27.1843C35.4825 27.1843 35.4422 27.1936 35.4056 27.2114C35.369 27.2292 35.3371 27.2552 35.3125 27.2871C34.3 28.6254 29.8675 34.5512 28.9225 35.7518C27.9775 36.9523 25.6487 37.0184 24.3606 35.7518L18.4488 29.9416C18.411 29.9045 18.3628 29.8792 18.3104 29.869C18.2579 29.8587 18.2035 29.8639 18.1541 29.884C18.1047 29.9041 18.0624 29.938 18.0328 29.9816C18.0031 30.0252 17.9874 30.0764 17.9875 30.1288V41.303C18.0014 42.096 17.7616 42.8733 17.3016 43.5262C16.8416 44.1789 16.1846 44.6745 15.4225 44.9433C14.9355 45.1092 14.4152 45.1588 13.9046 45.0878C13.3942 45.0169 12.9085 44.8274 12.4879 44.5353C12.0674 44.2433 11.7243 43.857 11.4872 43.4088C11.2502 42.9605 11.126 42.4632 11.125 41.9584V21.8679C11.1589 21.1439 11.425 20.4488 11.8854 19.8813C12.3459 19.3138 12.9773 18.9029 13.69 18.7068C14.3013 18.5474 14.9448 18.5489 15.5553 18.7114C16.1658 18.8739 16.7215 19.1915 17.1662 19.632L26.2563 28.5428C26.2835 28.5698 26.3164 28.5907 26.3528 28.6039C26.3891 28.6171 26.428 28.6223 26.4667 28.6191C26.5053 28.616 26.5428 28.6046 26.5764 28.5857C26.6101 28.5667 26.639 28.5408 26.6612 28.5097L33.1187 19.7587C33.4172 19.4034 33.7913 19.1164 34.215 18.9175C34.6386 18.7187 35.1015 18.613 35.5712 18.6077H52.3675C52.8272 18.6084 53.2814 18.7052 53.6997 18.8917C54.1181 19.0781 54.491 19.3499 54.7934 19.6888C55.0959 20.0276 55.321 20.4258 55.4536 20.8568C55.5862 21.2877 55.6234 21.7413 55.5625 22.1874C55.4441 22.9612 55.0431 23.6667 54.4339 24.1731C53.8246 24.6794 53.0485 24.9523 52.2494 24.941H42.8444C42.7971 24.9421 42.7511 24.9557 42.7109 24.9801C42.6708 25.0046 42.6381 25.0392 42.6163 25.0802C42.5945 25.1213 42.5843 25.1674 42.5868 25.2136C42.5893 25.2598 42.6045 25.3045 42.6306 25.343Z" fill="white"/>
</g>
<defs>
<clipPath id="clip0_21866_186796">
<rect width="64" height="64" fill="white"/>
</clipPath>
</defs>
</svg>
