<svg width="64" height="64" viewBox="0 0 64 64" fill="none" xmlns="http://www.w3.org/2000/svg">
<rect width="64" height="64" fill="#2081E2"/>
<g clip-path="url(#clip0_21747_186778)">
<path d="M64 32C64 49.6721 49.6721 64 32 64C14.3279 64 0 49.6721 0 32C0 14.3279 14.3279 0 32 0C49.6758 0 64 14.3279 64 32Z" fill="#2081E2"/>
<path d="M15.7875 33.075L15.9255 32.858L24.25 19.8355C24.3716 19.6447 24.6577 19.6645 24.7497 19.8716C26.1404 22.9884 27.3404 26.8646 26.7782 29.2777C26.5382 30.2706 25.8807 31.6153 25.141 32.858C25.0456 33.0389 24.9404 33.2164 24.8287 33.3874C24.776 33.4663 24.6873 33.5123 24.5919 33.5123H16.0307C15.8006 33.5123 15.6659 33.2624 15.7875 33.075Z" fill="white"/>
<path d="M52.8924 35.4948V37.5562C52.8924 37.6745 52.8201 37.7798 52.7149 37.8258C52.0705 38.102 49.8645 39.1146 48.9472 40.3902C46.6064 43.6483 44.8178 48.307 40.82 48.307H24.1415C18.2302 48.307 13.44 43.5004 13.44 37.5694V37.3786C13.44 37.2209 13.5682 37.0926 13.7261 37.0926H23.0236C23.2078 37.0926 23.3426 37.2636 23.3262 37.4444C23.2604 38.0494 23.3722 38.6675 23.6582 39.2297C24.2106 40.3507 25.3547 41.051 26.5909 41.051H31.1936V37.4576H26.6434C26.41 37.4576 26.2719 37.188 26.4068 36.9973C26.456 36.9217 26.5119 36.8428 26.5711 36.754C27.0018 36.1425 27.6166 35.1923 28.2281 34.1107C28.6456 33.3809 29.05 32.6016 29.3755 31.8192C29.4413 31.6778 29.4939 31.5332 29.5465 31.3917C29.6353 31.1419 29.7273 30.9085 29.7931 30.6751C29.8588 30.4778 29.9114 30.2707 29.964 30.0767C30.1185 29.4126 30.1843 28.709 30.1843 27.9791C30.1843 27.6931 30.1712 27.3939 30.1449 27.1079C30.1317 26.7955 30.0922 26.4832 30.0528 26.1709C30.0265 25.8947 29.9772 25.6218 29.9246 25.3358C29.8588 24.9183 29.7668 24.5041 29.6615 24.0865L29.6254 23.9287C29.5465 23.6427 29.4807 23.3698 29.3887 23.0838C29.129 22.1862 28.8297 21.3117 28.5141 20.493C28.3991 20.1676 28.2675 19.8552 28.136 19.5429C27.942 19.0727 27.7448 18.6454 27.564 18.2409C27.4719 18.0568 27.393 17.8892 27.3141 17.7182C27.2254 17.5242 27.1333 17.3303 27.0413 17.1461C26.9755 17.0047 26.8998 16.8733 26.8473 16.7418L26.2851 15.7028C26.2062 15.5615 26.3377 15.3938 26.4922 15.4365L30.01 16.39H30.0199C30.0265 16.39 30.0298 16.3933 30.0331 16.3933L30.4966 16.5215L31.0062 16.6661L31.1936 16.7187V14.6278C31.1936 13.6184 32.0024 12.7998 33.0019 12.7998C33.5016 12.7998 33.9553 13.0036 34.2807 13.3357C34.6062 13.6678 34.8101 14.1215 34.8101 14.6278V17.7314L35.1849 17.8365C35.2145 17.8464 35.2441 17.8596 35.2704 17.8793C35.3624 17.9483 35.4939 18.0503 35.6616 18.1752C35.7931 18.2804 35.9345 18.4086 36.1055 18.5401C36.4441 18.813 36.8484 19.1648 37.2923 19.5692C37.4106 19.6711 37.5258 19.7763 37.6309 19.8815C38.203 20.4141 38.8441 21.0388 39.4556 21.7292C39.6266 21.9231 39.7943 22.1204 39.9652 22.3276C40.1362 22.538 40.317 22.7451 40.4748 22.9523C40.682 23.2284 40.9055 23.5144 41.0994 23.8136C41.1915 23.955 41.2967 24.0996 41.3855 24.241C41.6353 24.6191 41.8556 25.0104 42.0661 25.4015C42.1548 25.5824 42.2469 25.7796 42.3258 25.9736C42.5592 26.4964 42.7433 27.029 42.8617 27.5616C42.8978 27.6767 42.9242 27.8016 42.9373 27.9134V27.9396C42.9767 28.0975 42.9899 28.2652 43.003 28.4361C43.0556 28.9818 43.0293 29.5276 42.911 30.0767C42.8617 30.3101 42.7959 30.5304 42.717 30.7638C42.6381 30.9874 42.5592 31.2208 42.4573 31.4411C42.2601 31.898 42.0266 32.3551 41.7504 32.7825C41.6617 32.9402 41.5565 33.1079 41.4512 33.2657C41.3362 33.4334 41.2179 33.5913 41.1126 33.7458C40.968 33.9431 40.8134 34.1501 40.6556 34.3342C40.5143 34.5282 40.3696 34.7222 40.2118 34.8932C39.9915 35.1529 39.7811 35.3995 39.5608 35.6362C39.4293 35.7907 39.288 35.9485 39.1433 36.0899C39.0019 36.2477 38.8572 36.3891 38.7258 36.5205C38.5055 36.7409 38.3214 36.9118 38.1668 37.0532L37.8052 37.3853C37.7526 37.4313 37.6836 37.4576 37.6112 37.4576H34.8101V41.051H38.3345C39.1236 41.051 39.8731 40.7716 40.4781 40.2587C40.6852 40.0779 41.5893 39.2954 42.6578 38.1151C42.694 38.0757 42.7401 38.0461 42.7926 38.0329L52.5275 35.2186C52.7083 35.166 52.8924 35.3041 52.8924 35.4948Z" fill="white"/>
</g>
<defs>
<clipPath id="clip0_21747_186778">
<rect width="64" height="64" fill="white"/>
</clipPath>
</defs>
</svg>
